<?plantuml 1.2026.1beta5?><svg xmlns="http://www.w3.org/2000/svg" xmlns:xlink="http://www.w3.org/1999/xlink" contentStyleType="text/css" data-diagram-type="DESCRIPTION" height="516px" preserveAspectRatio="none" style="width:1194px;height:516px;background:#FFFFFF;" version="1.1" viewBox="0 0 1194 516" width="1194px" zoomAndPan="magnify"><defs/><g><!--cluster Administra??o e Infraestrutura--><g class="cluster" data-qualified-name="Administra..o e Infraestrutura" data-source-line="20" id="ent0019"><path d="M8.5,408.85 L254.5137,408.85 A3.75,3.75 0 0 1 257.0137,411.35 L264.0137,431.1469 L1017.5,431.1469 A2.5,2.5 0 0 1 1020,433.6469 L1020,507.32 A2.5,2.5 0 0 1 1017.5,509.82 L8.5,509.82 A2.5,2.5 0 0 1 6,507.32 L6,411.35 A2.5,2.5 0 0 1 8.5,408.85" fill="none" style="stroke:#000000;stroke-width:1.5;"/><line style="stroke:#000000;stroke-width:1.5;" x1="6" x2="264.0137" y1="431.1469" y2="431.1469"/><text fill="#000000" font-family="sans-serif" font-size="14" font-weight="bold" lengthAdjust="spacing" textLength="245.0137" x="10" y="423.8451">Administra&#231;&#227;o e Infraestrutura</text></g><!--entity visLog--><g class="entity" data-qualified-name="Administra..o e Infraestrutura.visLog" data-source-line="22" id="ent0020"><ellipse cx="709.0032" cy="468.8286" fill="#F1F1F1" rx="67.7932" ry="15.9586" style="stroke:#181818;stroke-width:0.5;"/><text fill="#000000" font-family="sans-serif" font-size="14" lengthAdjust="spacing" textLength="100.7617" x="658.6223" y="473.4771">Visualizar logs</text></g><!--entity mantPolLog--><g class="entity" data-qualified-name="Administra..o e Infraestrutura.mantPolLog" data-source-line="24" id="ent0021"><ellipse cx="908.005" cy="468.827" fill="#F1F1F1" rx="95.935" ry="21.587" style="stroke:#181818;stroke-width:0.5;"/><text fill="#000000" font-family="sans-serif" font-size="14" lengthAdjust="spacing" textLength="167.0566" x="824.4766" y="473.4754">Manter pol&#237;ticas de logs</text></g><!--entity confBack--><g class="entity" data-qualified-name="Administra..o e Infraestrutura.confBack" data-source-line="26" id="ent0022"><ellipse cx="493.0034" cy="468.8267" fill="#F1F1F1" rx="112.9334" ry="24.9867" style="stroke:#181818;stroke-width:0.5;"/><text fill="#000000" font-family="sans-serif" font-size="14" lengthAdjust="spacing" textLength="204.21" x="390.8984" y="473.4751">Configurar rotinas de backup</text></g><!--entity visSt--><g class="entity" data-qualified-name="Administra..o e Infraestrutura.visSt" data-source-line="28" id="ent0023"><ellipse cx="265.9991" cy="468.8344" fill="#F1F1F1" rx="78.9691" ry="24.5044" style="stroke:#181818;stroke-width:0.5;"/><text fill="#000000" font-family="sans-serif" font-size="14" lengthAdjust="spacing" textLength="115.1445" x="208.4268" y="467.6009">Visualizar status</text><text fill="#000000" font-family="sans-serif" font-size="14" lengthAdjust="spacing" textLength="76.6992" x="227.6495" y="483.8978">do sistema</text></g><!--entity repErr--><g class="entity" data-qualified-name="Administra..o e Infraestrutura.repErr" data-source-line="30" id="ent0024"><ellipse cx="87.005" cy="468.829" fill="#F1F1F1" rx="65.395" ry="15.479" style="stroke:#181818;stroke-width:0.5;"/><text fill="#000000" font-family="sans-serif" font-size="14" lengthAdjust="spacing" textLength="94.5137" x="39.7482" y="473.4774">Reportar erro</text></g><!--entity us--><g class="entity" data-qualified-name="us" data-source-line="1" id="ent0002"><ellipse cx="442.0021" cy="14" fill="#F1F1F1" rx="8" ry="8" style="stroke:#181818;stroke-width:0.5;"/><path d="M442.0021,22 L442.0021,49 M429.0021,30 L455.0021,30 M442.0021,49 L429.0021,64 M442.0021,49 L455.0021,64" fill="none" style="stroke:#181818;stroke-width:0.5;"/><text fill="#000000" font-family="sans-serif" font-size="14" lengthAdjust="spacing" textLength="53.2041" x="415.4" y="78.4951">Usu&#225;rio</text></g><!--entity ges--><g class="entity" data-qualified-name="ges" data-source-line="2" id="ent0003"><ellipse cx="442.0032" cy="150.29" fill="#F1F1F1" rx="8" ry="8" style="stroke:#181818;stroke-width:0.5;"/><path d="M442.0032,158.29 L442.0032,185.29 M429.0032,166.29 L455.0032,166.29 M442.0032,185.29 L429.0032,200.29 M442.0032,185.29 L455.0032,200.29" fill="none" style="stroke:#181818;stroke-width:0.5;"/><text fill="#000000" font-family="sans-serif" font-size="14" lengthAdjust="spacing" textLength="46.5664" x="418.72" y="214.7851">Gestor</text></g><!--entity usc--><g class="entity" data-qualified-name="usc" data-source-line="3" id="ent0004"><ellipse cx="789.0018" cy="150.29" fill="#F1F1F1" rx="8" ry="8" style="stroke:#181818;stroke-width:0.5;"/><path d="M789.0018,158.29 L789.0018,185.29 M776.0018,166.29 L802.0018,166.29 M789.0018,185.29 L776.0018,200.29 M789.0018,185.29 L802.0018,200.29" fill="none" style="stroke:#181818;stroke-width:0.5;"/><text fill="#000000" font-family="sans-serif" font-size="14" lengthAdjust="spacing" textLength="112.1436" x="732.93" y="214.7851">Usu&#225;rio Comum</text></g><!--entity ger--><g class="entity" data-qualified-name="ger" data-source-line="4" id="ent0005"><ellipse cx="361.0033" cy="294.74" fill="#F1F1F1" rx="8" ry="8" style="stroke:#181818;stroke-width:0.5;"/><path d="M361.0033,302.74 L361.0033,329.74 M348.0033,310.74 L374.0033,310.74 M361.0033,329.74 L348.0033,344.74 M361.0033,329.74 L374.0033,344.74" fill="none" style="stroke:#181818;stroke-width:0.5;"/><text fill="#000000" font-family="sans-serif" font-size="14" lengthAdjust="spacing" textLength="56.8066" x="332.6" y="359.2351">Gerente</text></g><!--entity adm--><g class="entity" data-qualified-name="adm" data-source-line="5" id="ent0006"><ellipse cx="580" cy="294.74" fill="#F1F1F1" rx="8" ry="8" style="stroke:#181818;stroke-width:0.5;"/><path d="M580,302.74 L580,329.74 M567,310.74 L593,310.74 M580,329.74 L567,344.74 M580,329.74 L593,344.74" fill="none" style="stroke:#181818;stroke-width:0.5;"/><text fill="#000000" font-family="sans-serif" font-size="14" lengthAdjust="spacing" textLength="99.0801" x="530.46" y="359.2351">Administrador</text></g><!--entity ass--><g class="entity" data-qualified-name="ass" data-source-line="6" id="ent0007"><ellipse cx="1071.0043" cy="294.74" fill="#F1F1F1" rx="8" ry="8" style="stroke:#181818;stroke-width:0.5;"/><path d="M1071.0043,302.74 L1071.0043,329.74 M1058.0043,310.74 L1084.0043,310.74 M1071.0043,329.74 L1058.0043,344.74 M1071.0043,329.74 L1084.0043,344.74" fill="none" style="stroke:#181818;stroke-width:0.5;"/><text fill="#000000" font-family="sans-serif" font-size="14" lengthAdjust="spacing" textLength="70.3486" x="1035.83" y="359.2351">Associado</text></g><!--entity tec--><g class="entity" data-qualified-name="tec" data-source-line="7" id="ent0008"><ellipse cx="788.9989" cy="286.59" fill="#F1F1F1" rx="8" ry="8" style="stroke:#181818;stroke-width:0.5;"/><path d="M788.9989,294.59 L788.9989,321.59 M775.9989,302.59 L801.9989,302.59 M788.9989,321.59 L775.9989,336.59 M788.9989,321.59 L801.9989,336.59" fill="none" style="stroke:#181818;stroke-width:0.5;"/><text fill="#000000" font-family="sans-serif" font-size="14" lengthAdjust="spacing" textLength="75.8379" x="751.08" y="351.0851">T&#233;cnico de</text><text fill="#000000" font-family="sans-serif" font-size="14" lengthAdjust="spacing" textLength="53.4775" x="751.08" y="367.382">suporte</text></g><!--entity cl--><g class="entity" data-qualified-name="cl" data-source-line="8" id="ent0009"><ellipse cx="1163.0018" cy="439.18" fill="#F1F1F1" rx="8" ry="8" style="stroke:#181818;stroke-width:0.5;"/><path d="M1163.0018,447.18 L1163.0018,474.18 M1150.0018,455.18 L1176.0018,455.18 M1163.0018,474.18 L1150.0018,489.18 M1163.0018,474.18 L1176.0018,489.18" fill="none" style="stroke:#181818;stroke-width:0.5;"/><text fill="#000000" font-family="sans-serif" font-size="14" lengthAdjust="spacing" textLength="49.1436" x="1138.43" y="503.6751">Cliente</text></g><!--entity co--><g class="entity" data-qualified-name="co" data-source-line="9" id="ent0010"><ellipse cx="1070.9951" cy="439.18" fill="#F1F1F1" rx="8" ry="8" style="stroke:#181818;stroke-width:0.5;"/><path d="M1070.9951,447.18 L1070.9951,474.18 M1057.9951,455.18 L1083.9951,455.18 M1070.9951,474.18 L1057.9951,489.18 M1070.9951,474.18 L1083.9951,489.18" fill="none" style="stroke:#181818;stroke-width:0.5;"/><text fill="#000000" font-family="sans-serif" font-size="14" lengthAdjust="spacing" textLength="64.4902" x="1038.75" y="503.6751">Contador</text></g><!--reverse link us to ges--><g class="link" data-entity-1="ent0002" data-entity-2="ent0003" data-link-type="extension" data-source-line="11" id="lnk11"><path d="M442,100.06 C442,118.68 442,123.13 442,141.73" fill="none" id="us-backto-ges" style="stroke:#181818;stroke-width:1;"/><polygon fill="none" points="442,82.06,436,100.06,448,100.06,442,82.06" style="stroke:#181818;stroke-width:1;"/></g><!--reverse link ges to adm--><g class="link" data-entity-1="ent0003" data-entity-2="ent0006" data-link-type="extension" data-source-line="12" id="lnk12"><path d="M478.2476,218.3551 C499.6776,240.4651 519,260.42 543.63,285.85" fill="none" id="ges-backto-adm" style="stroke:#181818;stroke-width:1;"/><polygon fill="none" points="465.72,205.43,473.9392,222.531,482.556,214.1793,465.72,205.43" style="stroke:#181818;stroke-width:1;"/></g><!--reverse link ges to ger--><g class="link" data-entity-1="ent0003" data-entity-2="ent0005" data-link-type="extension" data-source-line="13" id="lnk13"><path d="M411.8209,234.0163 C399.9109,254.9563 394.02,265.32 382.14,286.21" fill="none" id="ges-backto-ger" style="stroke:#181818;stroke-width:1;"/><polygon fill="none" points="420.72,218.37,406.6055,231.0499,417.0363,236.9826,420.72,218.37" style="stroke:#181818;stroke-width:1;"/></g><!--reverse link us to usc--><g class="link" data-entity-1="ent0002" data-entity-2="ent0004" data-link-type="extension" data-source-line="14" id="lnk14"><path d="M485.7263,61.5677 C542.0963,83.3877 656.73,127.75 732.48,157.07" fill="none" id="us-backto-usc" style="stroke:#181818;stroke-width:1;"/><polygon fill="none" points="468.94,55.07,483.5604,67.1632,487.8922,55.9723,468.94,55.07" style="stroke:#181818;stroke-width:1;"/></g><!--reverse link usc to ass--><g class="link" data-entity-1="ent0004" data-entity-2="ent0007" data-link-type="extension" data-source-line="15" id="lnk15"><path d="M861.4567,217.5455 C918.1967,246.2055 987.87,281.4 1035.66,305.53" fill="none" id="usc-backto-ass" style="stroke:#181818;stroke-width:1;"/><polygon fill="none" points="845.39,209.43,858.7516,222.901,864.1619,212.1899,845.39,209.43" style="stroke:#181818;stroke-width:1;"/></g><!--reverse link ass to co--><g class="link" data-entity-1="ent0007" data-entity-2="ent0010" data-link-type="extension" data-source-line="16" id="lnk16"><path d="M1071,380.81 C1071,401.75 1071,409.76 1071,430.66" fill="none" id="ass-backto-co" style="stroke:#181818;stroke-width:1;"/><polygon fill="none" points="1071,362.81,1065,380.81,1077,380.81,1071,362.81" style="stroke:#181818;stroke-width:1;"/></g><!--reverse link ass to cl--><g class="link" data-entity-1="ent0007" data-entity-2="ent0009" data-link-type="extension" data-source-line="17" id="lnk17"><path d="M1106.0659,377.876 C1114.0859,389.956 1113,388.43 1121,400.85 C1127.17,410.42 1133.76,420.83 1139.84,430.52" fill="none" id="ass-backto-cl" style="stroke:#181818;stroke-width:1;"/><polygon fill="none" points="1096.11,362.88,1101.0673,381.1946,1111.0646,374.5573,1096.11,362.88" style="stroke:#181818;stroke-width:1;"/></g><!--reverse link usc to tec--><g class="link" data-entity-1="ent0004" data-entity-2="ent0008" data-link-type="extension" data-source-line="18" id="lnk18"><path d="M789,236.37 C789,254.59 789,258.64 789,277.83" fill="none" id="usc-backto-tec" style="stroke:#181818;stroke-width:1;"/><polygon fill="none" points="789,218.37,783,236.37,795,236.37,789,218.37" style="stroke:#181818;stroke-width:1;"/></g><!--link adm to visLog--><g class="link" data-entity-1="ent0006" data-entity-2="ent0020" data-link-type="association" data-source-line="33" id="lnk25"><path d="M613.89,362.81 C640.62,392.32 676.47,431.91 695.62,453.05" fill="none" id="adm-visLog" style="stroke:#181818;stroke-width:1;"/></g><!--link adm to mantPolLog--><g class="link" data-entity-1="ent0006" data-entity-2="ent0021" data-link-type="association" data-source-line="34" id="lnk26"><path d="M629.94,340 C674.01,353.59 739.52,375.52 794,400.85 C823.56,414.59 855.4,433.69 877.9,447.99" fill="none" id="adm-mantPolLog" style="stroke:#181818;stroke-width:1;"/></g><!--link adm to confBack--><g class="link" data-entity-1="ent0006" data-entity-2="ent0022" data-link-type="association" data-source-line="36" id="lnk27"><path d="M557.14,362.81 C541.53,388.37 521.31,421.48 507.79,443.62" fill="none" id="adm-confBack" style="stroke:#181818;stroke-width:1;"/></g><!--link ges to visSt--><g class="link" data-entity-1="ent0003" data-entity-2="ent0023" data-link-type="association" data-source-line="38" id="lnk28"><path d="M443.29,218.25 C442.95,258.91 437.11,324.34 407,370.68 C394.08,390.57 382.53,387.41 363,400.85 C341.08,415.93 316.41,432.97 297.43,446.08" fill="none" id="ges-visSt" style="stroke:#181818;stroke-width:1;"/></g><!--link us to repErr--><g class="link" data-entity-1="ent0002" data-entity-2="ent0024" data-link-type="association" data-source-line="40" id="lnk29"><path d="M415.03,76.8 C343.18,162.44 149.26,393.61 99.02,453.5" fill="none" id="us-repErr" style="stroke:#181818;stroke-width:1;"/></g><?plantuml-src NL4zJyCm4DtzAqvTQ8PAhH1BnG8LGaWW8GfCNOpZHXQ9Bxgp6VZuCOW1CV0hyiSunsbJCLZAUtdlxjtTye5ZzqaEbw0P8glbfUM0rCFA2ju9O8LDR0QPIJgoFjX1I6fvLZREEmwaoy6loqPePZHEk4onbBplVent1g6q6y-nHHhg12k5LxNR5pQrOFHXNzAWKf7Xz7qsw-F9oo3rseEKPwTAOUKDAcalBmEfDNxNeoYbKAqspxgoC1d7whwxBmGBLtvBMhP4CKJI4tXJ04SmdozWsaX4jkGqwDPw0I-EewxTgwP2LDF7FOGQAouWIwwn6ceS9zMDbla9Mgoxt-2CQ4exwXlvUulrw3b97jdIrbMIXu0mE9zDJp95R8kyERyz5vXDY_c_E1nqYBpn9GBBjBRHkt3hC5WMoN9dqxd4O8cmbv1jBuXKBo9RQ-FGwqPEY2oSt0LafzCyPN70Z7CKwe3UvUp9TD71lGuz4pEHcnRgumy0?></g></svg>