<?plantuml 1.2026.1beta5?><svg xmlns="http://www.w3.org/2000/svg" xmlns:xlink="http://www.w3.org/1999/xlink" contentStyleType="text/css" data-diagram-type="DESCRIPTION" height="458px" preserveAspectRatio="none" style="width:914px;height:458px;background:#FFFFFF;" version="1.1" viewBox="0 0 914 458" width="914px" zoomAndPan="magnify"><defs/><g><!--cluster Atualiza??o de Legisla??o e Al?quotas--><g class="cluster" data-qualified-name="Atualiza..o de Legisla..o e Al.quotas" data-source-line="22" id="ent0019"><path d="M436.93,6 L735.6282,6 A3.75,3.75 0 0 1 738.1282,8.5 L745.1282,28.2969 L904.89,28.2969 A2.5,2.5 0 0 1 907.39,30.7969 L907.39,231.5 A2.5,2.5 0 0 1 904.89,234 L436.93,234 A2.5,2.5 0 0 1 434.43,231.5 L434.43,8.5 A2.5,2.5 0 0 1 436.93,6" fill="none" style="stroke:#000000;stroke-width:1.5;"/><line style="stroke:#000000;stroke-width:1.5;" x1="434.43" x2="745.1282" y1="28.2969" y2="28.2969"/><text fill="#000000" font-family="sans-serif" font-size="14" font-weight="bold" lengthAdjust="spacing" textLength="297.6982" x="438.43" y="20.9951">Atualiza&#231;&#227;o de Legisla&#231;&#227;o e Al&#237;quotas</text></g><!--entity atuTab--><g class="entity" data-qualified-name="Atualiza..o de Legisla..o e Al.quotas.atuTab" data-source-line="24" id="ent0020"><ellipse cx="558.1537" cy="175.0026" fill="#F1F1F1" rx="89.1837" ry="23.9026" style="stroke:#181818;stroke-width:0.5;"/><text fill="#000000" font-family="sans-serif" font-size="14" lengthAdjust="spacing" textLength="61.9814" x="527.163" y="168.295">Atualizar</text><text fill="#000000" font-family="sans-serif" font-size="14" lengthAdjust="spacing" textLength="134.3877" x="490.9599" y="184.5919">Tabelas Tribut&#225;rias</text></g><!--entity gerAliq--><g class="entity" data-qualified-name="Atualiza..o de Legisla..o e Al.quotas.gerAliq" data-source-line="27" id="ent0021"><ellipse cx="558.1506" cy="81.0041" fill="#F1F1F1" rx="107.7206" ry="23.9441" style="stroke:#181818;stroke-width:0.5;"/><text fill="#000000" font-family="sans-serif" font-size="14" lengthAdjust="spacing" textLength="68.626" x="523.8376" y="74.0131">Gerenciar</text><text fill="#000000" font-family="sans-serif" font-size="14" lengthAdjust="spacing" textLength="165.7305" x="475.2853" y="90.31">Al&#237;quotas de ISS e ICMS</text></g><g class="entity" data-qualified-name="Atualiza..o de Legisla..o e Al.quotas.n1" data-source-line="33" id="ent0024"><path d="M725.87,132.17 L725.87,171 L647.8,175 L725.87,179 L725.87,217.8341 A0,0 0 0 0 725.87,217.8341 L891.3871,217.8341 A0,0 0 0 0 891.3871,217.8341 L891.3871,142.17 L881.3871,132.17 L725.87,132.17 A0,0 0 0 0 725.87,132.17" fill="#FEFFDD" style="stroke:#181818;stroke-width:0.5;"/><path d="M881.3871,132.17 L881.3871,142.17 L891.3871,142.17 L881.3871,132.17" fill="#FEFFDD" style="stroke:#181818;stroke-width:0.5;"/><text fill="#000000" font-family="sans-serif" font-size="13" lengthAdjust="spacing" textLength="125.3154" x="731.87" y="149.2369">Mant&#233;m tabelas do</text><text fill="#000000" font-family="sans-serif" font-size="13" lengthAdjust="spacing" textLength="115.6479" x="731.87" y="164.3697">Simples Nacional,</text><text fill="#000000" font-family="sans-serif" font-size="13" lengthAdjust="spacing" textLength="144.5171" x="731.87" y="179.5025">Presun&#231;&#227;o, IRPJ, CSLL,</text><text fill="#000000" font-family="sans-serif" font-size="13" lengthAdjust="spacing" textLength="76.7876" x="731.87" y="194.6353">PIS, COFINS</text><text fill="#000000" font-family="sans-serif" font-size="13" lengthAdjust="spacing" textLength="138.9692" x="731.87" y="209.7681">e mapeamento CNAE</text></g><g class="entity" data-qualified-name="Atualiza..o de Legisla..o e Al.quotas.n2" data-source-line="36" id="ent0026"><path d="M735.13,41.3 L735.13,68.52 L663.81,75.95 L735.13,76.52 L735.13,96.6984 A0,0 0 0 0 735.13,96.6984 L882.1183,96.6984 A0,0 0 0 0 882.1183,96.6984 L882.1183,51.3 L872.1183,41.3 L735.13,41.3 A0,0 0 0 0 735.13,41.3" fill="#FEFFDD" style="stroke:#181818;stroke-width:0.5;"/><path d="M872.1183,41.3 L872.1183,51.3 L882.1183,51.3 L872.1183,41.3" fill="#FEFFDD" style="stroke:#181818;stroke-width:0.5;"/><text fill="#000000" font-family="sans-serif" font-size="13" lengthAdjust="spacing" textLength="125.9883" x="741.13" y="58.3669">Cadastra e atualiza</text><text fill="#000000" font-family="sans-serif" font-size="13" lengthAdjust="spacing" textLength="85.1538" x="741.13" y="73.4997">al&#237;quotas por</text><text fill="#000000" font-family="sans-serif" font-size="13" lengthAdjust="spacing" textLength="84.7031" x="741.13" y="88.6325">munic&#237;pio/UF</text></g><!--entity us--><g class="entity" data-qualified-name="us" data-source-line="1" id="ent0002"><ellipse cx="32.6021" cy="202.35" fill="#F1F1F1" rx="8" ry="8" style="stroke:#181818;stroke-width:0.5;"/><path d="M32.6021,210.35 L32.6021,237.35 M19.6021,218.35 L45.6021,218.35 M32.6021,237.35 L19.6021,252.35 M32.6021,237.35 L45.6021,252.35" fill="none" style="stroke:#181818;stroke-width:0.5;"/><text fill="#000000" font-family="sans-serif" font-size="14" lengthAdjust="spacing" textLength="53.2041" x="6" y="266.8451">Usu&#225;rio</text></g><!--entity ges--><g class="entity" data-qualified-name="ges" data-source-line="2" id="ent0003"><ellipse cx="175.2732" cy="145.35" fill="#F1F1F1" rx="8" ry="8" style="stroke:#181818;stroke-width:0.5;"/><path d="M175.2732,153.35 L175.2732,180.35 M162.2732,161.35 L188.2732,161.35 M175.2732,180.35 L162.2732,195.35 M175.2732,180.35 L188.2732,195.35" fill="none" style="stroke:#181818;stroke-width:0.5;"/><text fill="#000000" font-family="sans-serif" font-size="14" lengthAdjust="spacing" textLength="46.5664" x="151.99" y="209.8451">Gestor</text></g><!--entity usc--><g class="entity" data-qualified-name="usc" data-source-line="3" id="ent0004"><ellipse cx="175.2718" cy="258.35" fill="#F1F1F1" rx="8" ry="8" style="stroke:#181818;stroke-width:0.5;"/><path d="M175.2718,266.35 L175.2718,293.35 M162.2718,274.35 L188.2718,274.35 M175.2718,293.35 L162.2718,308.35 M175.2718,293.35 L188.2718,308.35" fill="none" style="stroke:#181818;stroke-width:0.5;"/><text fill="#000000" font-family="sans-serif" font-size="14" lengthAdjust="spacing" textLength="112.1436" x="119.2" y="322.8451">Usu&#225;rio Comum</text></g><!--entity ger--><g class="entity" data-qualified-name="ger" data-source-line="4" id="ent0005"><ellipse cx="340.8833" cy="34.35" fill="#F1F1F1" rx="8" ry="8" style="stroke:#181818;stroke-width:0.5;"/><path d="M340.8833,42.35 L340.8833,69.35 M327.8833,50.35 L353.8833,50.35 M340.8833,69.35 L327.8833,84.35 M340.8833,69.35 L353.8833,84.35" fill="none" style="stroke:#181818;stroke-width:0.5;"/><text fill="#000000" font-family="sans-serif" font-size="14" lengthAdjust="spacing" textLength="56.8066" x="312.48" y="98.8451">Gerente</text></g><!--entity adm--><g class="entity" data-qualified-name="adm" data-source-line="5" id="ent0006"><ellipse cx="340.89" cy="145.35" fill="#F1F1F1" rx="8" ry="8" style="stroke:#181818;stroke-width:0.5;"/><path d="M340.89,153.35 L340.89,180.35 M327.89,161.35 L353.89,161.35 M340.89,180.35 L327.89,195.35 M340.89,180.35 L353.89,195.35" fill="none" style="stroke:#181818;stroke-width:0.5;"/><text fill="#000000" font-family="sans-serif" font-size="14" lengthAdjust="spacing" textLength="99.0801" x="291.35" y="209.8451">Administrador</text></g><!--entity ass--><g class="entity" data-qualified-name="ass" data-source-line="6" id="ent0007"><ellipse cx="340.8843" cy="258.35" fill="#F1F1F1" rx="8" ry="8" style="stroke:#181818;stroke-width:0.5;"/><path d="M340.8843,266.35 L340.8843,293.35 M327.8843,274.35 L353.8843,274.35 M340.8843,293.35 L327.8843,308.35 M340.8843,293.35 L353.8843,308.35" fill="none" style="stroke:#181818;stroke-width:0.5;"/><text fill="#000000" font-family="sans-serif" font-size="14" lengthAdjust="spacing" textLength="70.3486" x="305.71" y="322.8451">Associado</text></g><!--entity tec--><g class="entity" data-qualified-name="tec" data-source-line="7" id="ent0008"><ellipse cx="340.8889" cy="369.21" fill="#F1F1F1" rx="8" ry="8" style="stroke:#181818;stroke-width:0.5;"/><path d="M340.8889,377.21 L340.8889,404.21 M327.8889,385.21 L353.8889,385.21 M340.8889,404.21 L327.8889,419.21 M340.8889,404.21 L353.8889,419.21" fill="none" style="stroke:#181818;stroke-width:0.5;"/><text fill="#000000" font-family="sans-serif" font-size="14" lengthAdjust="spacing" textLength="75.8379" x="302.97" y="433.7051">T&#233;cnico de</text><text fill="#000000" font-family="sans-serif" font-size="14" lengthAdjust="spacing" textLength="53.4775" x="302.97" y="450.002">suporte</text></g><!--entity cl--><g class="entity" data-qualified-name="cl" data-source-line="8" id="ent0009"><ellipse cx="558.1518" cy="258.35" fill="#F1F1F1" rx="8" ry="8" style="stroke:#181818;stroke-width:0.5;"/><path d="M558.1518,266.35 L558.1518,293.35 M545.1518,274.35 L571.1518,274.35 M558.1518,293.35 L545.1518,308.35 M558.1518,293.35 L571.1518,308.35" fill="none" style="stroke:#181818;stroke-width:0.5;"/><text fill="#000000" font-family="sans-serif" font-size="14" lengthAdjust="spacing" textLength="49.1436" x="533.58" y="322.8451">Cliente</text></g><!--entity co--><g class="entity" data-qualified-name="co" data-source-line="9" id="ent0010"><ellipse cx="558.1451" cy="369.35" fill="#F1F1F1" rx="8" ry="8" style="stroke:#181818;stroke-width:0.5;"/><path d="M558.1451,377.35 L558.1451,404.35 M545.1451,385.35 L571.1451,385.35 M558.1451,404.35 L545.1451,419.35 M558.1451,404.35 L571.1451,419.35" fill="none" style="stroke:#181818;stroke-width:0.5;"/><text fill="#000000" font-family="sans-serif" font-size="14" lengthAdjust="spacing" textLength="64.4902" x="525.9" y="433.8451">Contador</text></g><!--reverse link us to ges--><g class="link" data-entity-1="ent0002" data-entity-2="ent0003" data-link-type="extension" data-source-line="11" id="lnk11"><path d="M76.082,214.7891 C102.582,204.0491 126.71,194.28 151.88,184.08" fill="none" id="us-backto-ges" style="stroke:#181818;stroke-width:1;"/><polygon fill="none" points="59.4,221.55,78.3357,220.3497,73.8284,209.2284,59.4,221.55" style="stroke:#181818;stroke-width:1;"/></g><!--reverse link ges to adm--><g class="link" data-entity-1="ent0003" data-entity-2="ent0006" data-link-type="extension" data-source-line="12" id="lnk12"><path d="M217.03,175 C240.73,175 260.61,175 291.12,175" fill="none" id="ges-backto-adm" style="stroke:#181818;stroke-width:1;"/><polygon fill="none" points="199.03,175,217.03,181,217.03,169,199.03,175" style="stroke:#181818;stroke-width:1;"/></g><!--reverse link ges to ger--><g class="link" data-entity-1="ent0003" data-entity-2="ent0005" data-link-type="extension" data-source-line="13" id="lnk13"><path d="M213.9243,149.4626 C243.5143,129.3826 280.28,104.44 312.14,82.83" fill="none" id="ges-backto-ger" style="stroke:#181818;stroke-width:1;"/><polygon fill="none" points="199.03,159.57,217.2934,154.4274,210.5552,144.4978,199.03,159.57" style="stroke:#181818;stroke-width:1;"/></g><!--reverse link us to usc--><g class="link" data-entity-1="ent0002" data-entity-2="ent0004" data-link-type="extension" data-source-line="14" id="lnk14"><path d="M76.1209,248.9343 C92.7809,255.5743 98.38,257.79 118.91,265.96" fill="none" id="us-backto-usc" style="stroke:#181818;stroke-width:1;"/><polygon fill="none" points="59.4,242.27,73.8995,254.5079,78.3423,243.3606,59.4,242.27" style="stroke:#181818;stroke-width:1;"/></g><!--reverse link usc to ass--><g class="link" data-entity-1="ent0004" data-entity-2="ent0007" data-link-type="extension" data-source-line="15" id="lnk15"><path d="M249.67,288 C274.14,288 284.15,288 305.54,288" fill="none" id="usc-backto-ass" style="stroke:#181818;stroke-width:1;"/><polygon fill="none" points="231.67,288,249.67,294,249.67,282,231.67,288" style="stroke:#181818;stroke-width:1;"/></g><!--reverse link ass to co--><g class="link" data-entity-1="ent0007" data-entity-2="ent0010" data-link-type="extension" data-source-line="16" id="lnk16"><path d="M391.2,323.137 C406.19,333.427 409.36,334.86 426.43,344 C459.09,361.5 498.53,377.43 525.49,387.59" fill="none" id="ass-backto-co" style="stroke:#181818;stroke-width:1;"/><polygon fill="none" points="376.36,312.95,387.8043,328.0837,394.5956,318.1904,376.36,312.95" style="stroke:#181818;stroke-width:1;"/></g><!--reverse link ass to cl--><g class="link" data-entity-1="ent0007" data-entity-2="ent0009" data-link-type="extension" data-source-line="17" id="lnk17"><path d="M394.47,288 C438.45,288 495.22,288 533.31,288" fill="none" id="ass-backto-cl" style="stroke:#181818;stroke-width:1;"/><polygon fill="none" points="376.47,288,394.47,294,394.47,282,376.47,288" style="stroke:#181818;stroke-width:1;"/></g><!--reverse link usc to tec--><g class="link" data-entity-1="ent0004" data-entity-2="ent0008" data-link-type="extension" data-source-line="18" id="lnk18"><path d="M243.9565,337.2282 C267.8365,354.5982 280.91,364.1 302.56,379.85" fill="none" id="usc-backto-tec" style="stroke:#181818;stroke-width:1;"/><polygon fill="none" points="229.4,326.64,240.4271,342.0803,247.4859,332.376,229.4,326.64" style="stroke:#181818;stroke-width:1;"/></g><!--link adm to atuTab--><g class="link" data-entity-1="ent0006" data-entity-2="ent0020" data-link-type="association" data-source-line="30" id="lnk22"><path d="M390.73,175 C413.81,175 442.08,175 468.72,175" fill="none" id="adm-atuTab" style="stroke:#181818;stroke-width:1;"/></g><!--link adm to gerAliq--><g class="link" data-entity-1="ent0006" data-entity-2="ent0021" data-link-type="association" data-source-line="31" id="lnk23"><path d="M390.8,150.6 C402.41,145 414.8,139.17 426.43,134 C451.38,122.91 479.39,111.43 503.07,102" fill="none" id="adm-gerAliq" style="stroke:#181818;stroke-width:1;"/></g><?plantuml-src JLBBRjim4BppAnQ-D0Qi97PkHY-240SARDU8x9ik3CMwHFbG-BWaxSSKFHGvv2lqOrbAbDm3WTtbS7PsbkkJ2zqVAymQg8FWoFg1EszidvuvvYC02gE2IZ0MSPPhpnFGadNUAA65yvOswJrj59QTCqnWRIWvf3nsxqmBPg3XjNQXDJRnU8x4XHGJCPEO6-qdIcO82Gw-_igoNXwU8OczfYJg6L5HB9w4mlPuXWIvBh6yWA8A8lbt3zw05USV7XfXEVF2Q49QodxICuTPxWELufLs_xg_SHJOyhDmCkKSSjbzl0JZgPl16m7u0gTYkO8CdZRPzluXkxrTBYxn2X5N8wMjzP4-Sua37wru3ZvkWBfvxw0FU8VeaV9ke2nt1wIvYpJzQj1pfBc8Y0hBga9XPR6hvcbjkHGlf6Uos8xXX5IX-yPX3Iq5jEDgw3Z_hv8UpkDBRJoQiQFQT-yAV9BTc5fNGhKILx8VUEMYrWVBNT2zGmiedmwF2oYgxJRUb1N6tpRblger1qLRFYY1Of_Vpw9SlOp39JLmVHqBau22DZJ-FPoF9XThx3bDZv-irYhWj-i-Mc5kJfk1i_TzdASdNP7Vdm00?></g></svg>