<?plantuml 1.2026.1beta5?><svg xmlns="http://www.w3.org/2000/svg" xmlns:xlink="http://www.w3.org/1999/xlink" contentStyleType="text/css" data-diagram-type="DESCRIPTION" height="748px" preserveAspectRatio="none" style="width:1121px;height:748px;background:#FFFFFF;" version="1.1" viewBox="0 0 1121 748" width="1121px" zoomAndPan="magnify"><defs/><g><!--cluster Controle de acesso--><g class="cluster" data-qualified-name="Controle de acesso" data-source-line="20" id="ent0019"><path d="M176.75,419.68 L327.9082,419.68 A3.75,3.75 0 0 1 330.4082,422.18 L337.4082,441.9769 L1111.75,441.9769 A2.5,2.5 0 0 1 1114.25,444.4769 L1114.25,738.96 A2.5,2.5 0 0 1 1111.75,741.46 L176.75,741.46 A2.5,2.5 0 0 1 174.25,738.96 L174.25,422.18 A2.5,2.5 0 0 1 176.75,419.68" fill="none" style="stroke:#000000;stroke-width:1.5;"/><line style="stroke:#000000;stroke-width:1.5;" x1="174.25" x2="337.4082" y1="441.9769" y2="441.9769"/><text fill="#000000" font-family="sans-serif" font-size="14" font-weight="bold" lengthAdjust="spacing" textLength="150.1582" x="178.25" y="434.6751">Controle de acesso</text></g><!--entity login--><g class="entity" data-qualified-name="Controle de acesso.login" data-source-line="22" id="ent0020"><ellipse cx="247.2495" cy="489.9536" fill="#F1F1F1" rx="57.3795" ry="14.5236" style="stroke:#181818;stroke-width:0.5;"/><text fill="#000000" font-family="sans-serif" font-size="14" lengthAdjust="spacing" textLength="76.9043" x="208.7974" y="494.6021">Fazer login</text></g><!--entity visCda--><g class="entity" data-qualified-name="Controle de acesso.visCda" data-source-line="24" id="ent0021"><ellipse cx="849.2476" cy="489.9546" fill="#F1F1F1" rx="69.8976" ry="35.2646" style="stroke:#181818;stroke-width:0.5;"/><text fill="#000000" font-family="sans-serif" font-size="14" lengthAdjust="spacing" textLength="67.6758" x="815.4098" y="474.9187">Visualizar</text><text fill="#000000" font-family="sans-serif" font-size="14" lengthAdjust="spacing" textLength="92.5313" x="802.982" y="491.2156">tentativas de</text><text fill="#000000" font-family="sans-serif" font-size="14" lengthAdjust="spacing" textLength="101.3701" x="798.5626" y="507.5124">entrada falhas</text></g><!--entity polSen--><g class="entity" data-qualified-name="Controle de acesso.polSen" data-source-line="26" id="ent0022"><ellipse cx="644.2526" cy="489.9535" fill="#F1F1F1" rx="99.8526" ry="31.0135" style="stroke:#181818;stroke-width:0.5;"/><text fill="#000000" font-family="sans-serif" font-size="14" lengthAdjust="spacing" textLength="112.0205" x="588.2424" y="479.8964">Manter pol&#237;ticas</text><text fill="#000000" font-family="sans-serif" font-size="14" lengthAdjust="spacing" textLength="169.0322" x="559.7365" y="496.1932">de expira&#231;&#227;o/renova&#231;&#227;o</text><text fill="#000000" font-family="sans-serif" font-size="14" lengthAdjust="spacing" textLength="71.4766" x="608.5143" y="512.4901">de senhas</text></g><!--entity logout--><g class="entity" data-qualified-name="Controle de acesso.logout" data-source-line="28" id="ent0023"><ellipse cx="1026.2488" cy="489.9478" fill="#F1F1F1" rx="72.2388" ry="16.8478" style="stroke:#181818;stroke-width:0.5;"/><text fill="#000000" font-family="sans-serif" font-size="14" lengthAdjust="spacing" textLength="111.9658" x="970.2659" y="494.5962">Encerrar sess&#227;o</text></g><!--entity bloq--><g class="entity" data-qualified-name="Controle de acesso.bloq" data-source-line="30" id="ent0024"><ellipse cx="311.2475" cy="708.3355" fill="#F1F1F1" rx="73.5775" ry="17.1155" style="stroke:#181818;stroke-width:0.5;"/><text fill="#000000" font-family="sans-serif" font-size="14" lengthAdjust="spacing" textLength="115.2607" x="253.6171" y="712.9839">Bloquear acesso</text></g><!--entity endSes--><g class="entity" data-qualified-name="Controle de acesso.endSes" data-source-line="32" id="ent0025"><ellipse cx="424.2463" cy="489.9525" fill="#F1F1F1" rx="84.7863" ry="25.8125" style="stroke:#181818;stroke-width:0.5;"/><text fill="#000000" font-family="sans-serif" font-size="14" lengthAdjust="spacing" textLength="111.9658" x="368.2634" y="486.1188">Encerrar sess&#227;o</text><text fill="#000000" font-family="sans-serif" font-size="14" lengthAdjust="spacing" textLength="116.8535" x="365.8196" y="502.4157">de outro Usu&#225;rio</text></g><g class="entity" data-qualified-name="Controle de acesso.n1" data-source-line="47" id="ent0031"><path d="M190.39,605.1 L190.39,630.2328 L432.1044,630.2328 L432.1044,615.1 L422.1044,605.1 L190.39,605.1" fill="#FEFFDD" style="stroke:#181818;stroke-width:0.5;"/><path d="M422.1044,605.1 L422.1044,615.1 L432.1044,615.1 L422.1044,605.1" fill="#FEFFDD" style="stroke:#181818;stroke-width:1;"/><text fill="#000000" font-family="sans-serif" font-size="13" lengthAdjust="spacing" textLength="220.7144" x="196.39" y="622.1669">{Se mais de uma tentativa falha}</text></g><!--entity us--><g class="entity" data-qualified-name="us" data-source-line="1" id="ent0002"><ellipse cx="500.2421" cy="14" fill="#F1F1F1" rx="8" ry="8" style="stroke:#181818;stroke-width:0.5;"/><path d="M500.2421,22 L500.2421,49 M487.2421,30 L513.2421,30 M500.2421,49 L487.2421,64 M500.2421,49 L513.2421,64" fill="none" style="stroke:#181818;stroke-width:0.5;"/><text fill="#000000" font-family="sans-serif" font-size="14" lengthAdjust="spacing" textLength="53.2041" x="473.64" y="78.4951">Usu&#225;rio</text></g><!--entity ges--><g class="entity" data-qualified-name="ges" data-source-line="2" id="ent0003"><ellipse cx="500.2432" cy="151.29" fill="#F1F1F1" rx="8" ry="8" style="stroke:#181818;stroke-width:0.5;"/><path d="M500.2432,159.29 L500.2432,186.29 M487.2432,167.29 L513.2432,167.29 M500.2432,186.29 L487.2432,201.29 M500.2432,186.29 L513.2432,201.29" fill="none" style="stroke:#181818;stroke-width:0.5;"/><text fill="#000000" font-family="sans-serif" font-size="14" lengthAdjust="spacing" textLength="46.5664" x="476.96" y="215.7851">Gestor</text></g><!--entity usc--><g class="entity" data-qualified-name="usc" data-source-line="3" id="ent0004"><ellipse cx="247.2418" cy="151.29" fill="#F1F1F1" rx="8" ry="8" style="stroke:#181818;stroke-width:0.5;"/><path d="M247.2418,159.29 L247.2418,186.29 M234.2418,167.29 L260.2418,167.29 M247.2418,186.29 L234.2418,201.29 M247.2418,186.29 L260.2418,201.29" fill="none" style="stroke:#181818;stroke-width:0.5;"/><text fill="#000000" font-family="sans-serif" font-size="14" lengthAdjust="spacing" textLength="112.1436" x="191.17" y="215.7851">Usu&#225;rio Comum</text></g><!--entity ger--><g class="entity" data-qualified-name="ger" data-source-line="4" id="ent0005"><ellipse cx="462.2433" cy="296.74" fill="#F1F1F1" rx="8" ry="8" style="stroke:#181818;stroke-width:0.5;"/><path d="M462.2433,304.74 L462.2433,331.74 M449.2433,312.74 L475.2433,312.74 M462.2433,331.74 L449.2433,346.74 M462.2433,331.74 L475.2433,346.74" fill="none" style="stroke:#181818;stroke-width:0.5;"/><text fill="#000000" font-family="sans-serif" font-size="14" lengthAdjust="spacing" textLength="56.8066" x="433.84" y="361.2351">Gerente</text></g><!--entity adm--><g class="entity" data-qualified-name="adm" data-source-line="5" id="ent0006"><ellipse cx="575.25" cy="296.74" fill="#F1F1F1" rx="8" ry="8" style="stroke:#181818;stroke-width:0.5;"/><path d="M575.25,304.74 L575.25,331.74 M562.25,312.74 L588.25,312.74 M575.25,331.74 L562.25,346.74 M575.25,331.74 L588.25,346.74" fill="none" style="stroke:#181818;stroke-width:0.5;"/><text fill="#000000" font-family="sans-serif" font-size="14" lengthAdjust="spacing" textLength="99.0801" x="525.71" y="361.2351">Administrador</text></g><!--entity ass--><g class="entity" data-qualified-name="ass" data-source-line="6" id="ent0007"><ellipse cx="130.2443" cy="296.74" fill="#F1F1F1" rx="8" ry="8" style="stroke:#181818;stroke-width:0.5;"/><path d="M130.2443,304.74 L130.2443,331.74 M117.2443,312.74 L143.2443,312.74 M130.2443,331.74 L117.2443,346.74 M130.2443,331.74 L143.2443,346.74" fill="none" style="stroke:#181818;stroke-width:0.5;"/><text fill="#000000" font-family="sans-serif" font-size="14" lengthAdjust="spacing" textLength="70.3486" x="95.07" y="361.2351">Associado</text></g><!--entity tec--><g class="entity" data-qualified-name="tec" data-source-line="7" id="ent0008"><ellipse cx="247.2489" cy="288.59" fill="#F1F1F1" rx="8" ry="8" style="stroke:#181818;stroke-width:0.5;"/><path d="M247.2489,296.59 L247.2489,323.59 M234.2489,304.59 L260.2489,304.59 M247.2489,323.59 L234.2489,338.59 M247.2489,323.59 L260.2489,338.59" fill="none" style="stroke:#181818;stroke-width:0.5;"/><text fill="#000000" font-family="sans-serif" font-size="14" lengthAdjust="spacing" textLength="75.8379" x="209.33" y="353.0851">T&#233;cnico de</text><text fill="#000000" font-family="sans-serif" font-size="14" lengthAdjust="spacing" textLength="53.4775" x="209.33" y="369.382">suporte</text></g><!--entity cl--><g class="entity" data-qualified-name="cl" data-source-line="8" id="ent0009"><ellipse cx="130.2418" cy="460.3" fill="#F1F1F1" rx="8" ry="8" style="stroke:#181818;stroke-width:0.5;"/><path d="M130.2418,468.3 L130.2418,495.3 M117.2418,476.3 L143.2418,476.3 M130.2418,495.3 L117.2418,510.3 M130.2418,495.3 L143.2418,510.3" fill="none" style="stroke:#181818;stroke-width:0.5;"/><text fill="#000000" font-family="sans-serif" font-size="14" lengthAdjust="spacing" textLength="49.1436" x="105.67" y="524.7951">Cliente</text></g><!--entity co--><g class="entity" data-qualified-name="co" data-source-line="9" id="ent0010"><ellipse cx="38.2451" cy="460.3" fill="#F1F1F1" rx="8" ry="8" style="stroke:#181818;stroke-width:0.5;"/><path d="M38.2451,468.3 L38.2451,495.3 M25.2451,476.3 L51.2451,476.3 M38.2451,495.3 L25.2451,510.3 M38.2451,495.3 L51.2451,510.3" fill="none" style="stroke:#181818;stroke-width:0.5;"/><text fill="#000000" font-family="sans-serif" font-size="14" lengthAdjust="spacing" textLength="64.4902" x="6" y="524.7951">Contador</text></g><!--reverse link us to ges--><g class="link" data-entity-1="ent0002" data-entity-2="ent0003" data-link-type="extension" data-source-line="11" id="lnk11"><path d="M500.25,99.97 C500.25,118.9 500.25,123.82 500.25,142.73" fill="none" id="us-backto-ges" style="stroke:#181818;stroke-width:1;"/><polygon fill="none" points="500.25,81.97,494.25,99.97,506.25,99.97,500.25,81.97" style="stroke:#181818;stroke-width:1;"/></g><!--reverse link ges to adm--><g class="link" data-entity-1="ent0003" data-entity-2="ent0006" data-link-type="extension" data-source-line="12" id="lnk12"><path d="M528.0951,235.2087 C539.1251,256.2887 544.52,266.62 555.57,287.76" fill="none" id="ges-backto-adm" style="stroke:#181818;stroke-width:1;"/><polygon fill="none" points="519.75,219.26,522.7788,237.9904,533.4113,232.427,519.75,219.26" style="stroke:#181818;stroke-width:1;"/></g><!--reverse link ges to ger--><g class="link" data-entity-1="ent0003" data-entity-2="ent0005" data-link-type="extension" data-source-line="13" id="lnk13"><path d="M485.7462,236.6587 C480.1562,257.7387 477.81,266.62 472.21,287.76" fill="none" id="ges-backto-ger" style="stroke:#181818;stroke-width:1;"/><polygon fill="none" points="490.36,219.26,479.9467,235.1207,491.5458,238.1966,490.36,219.26" style="stroke:#181818;stroke-width:1;"/></g><!--reverse link us to usc--><g class="link" data-entity-1="ent0002" data-entity-2="ent0004" data-link-type="extension" data-source-line="14" id="lnk14"><path d="M456.4393,61.4635 C425.4893,73.5835 390.41,88.49 348.25,111.79 C331.77,120.9 314.54,131.91 299.07,142.4" fill="none" id="us-backto-usc" style="stroke:#181818;stroke-width:1;"/><polygon fill="none" points="473.2,54.9,454.2515,55.8766,458.6271,67.0504,473.2,54.9" style="stroke:#181818;stroke-width:1;"/></g><!--reverse link usc to ass--><g class="link" data-entity-1="ent0004" data-entity-2="ent0007" data-link-type="extension" data-source-line="15" id="lnk15"><path d="M205.4305,233.2065 C188.2305,254.2865 178.17,266.62 160.93,287.76" fill="none" id="usc-backto-ass" style="stroke:#181818;stroke-width:1;"/><polygon fill="none" points="216.81,219.26,200.7816,229.4134,210.0793,236.9997,216.81,219.26" style="stroke:#181818;stroke-width:1;"/></g><!--reverse link ass to co--><g class="link" data-entity-1="ent0007" data-entity-2="ent0010" data-link-type="extension" data-source-line="16" id="lnk16"><path d="M100.0035,380.5021 C85.1935,406.5121 74.45,425.38 59.63,451.4" fill="none" id="ass-backto-co" style="stroke:#181818;stroke-width:1;"/><polygon fill="none" points="108.91,364.86,94.7895,377.5332,105.2175,383.4709,108.91,364.86" style="stroke:#181818;stroke-width:1;"/></g><!--reverse link ass to cl--><g class="link" data-entity-1="ent0007" data-entity-2="ent0009" data-link-type="extension" data-source-line="17" id="lnk17"><path d="M130.25,382.86 C130.25,408.87 130.25,425.38 130.25,451.4" fill="none" id="ass-backto-cl" style="stroke:#181818;stroke-width:1;"/><polygon fill="none" points="130.25,364.86,124.25,382.86,136.25,382.86,130.25,364.86" style="stroke:#181818;stroke-width:1;"/></g><!--reverse link usc to tec--><g class="link" data-entity-1="ent0004" data-entity-2="ent0008" data-link-type="extension" data-source-line="18" id="lnk18"><path d="M247.25,237.26 C247.25,255.77 247.25,260.29 247.25,279.81" fill="none" id="usc-backto-tec" style="stroke:#181818;stroke-width:1;"/><polygon fill="none" points="247.25,219.26,241.25,237.26,253.25,237.26,247.25,219.26" style="stroke:#181818;stroke-width:1;"/></g><!--link us to login--><g class="link" data-entity-1="ent0002" data-entity-2="ent0020" data-link-type="association" data-source-line="38" id="lnk26"><path d="M478.89,82.14 C425.64,175.66 288.81,415.96 254.92,475.46" fill="none" id="us-login" style="stroke:#181818;stroke-width:1;"/></g><!--link us to visCda--><g class="link" data-entity-1="ent0002" data-entity-2="ent0021" data-link-type="association" data-source-line="40" id="lnk27"><path d="M527.34,79.14 C593.08,162.83 760.33,375.75 824.06,456.88" fill="none" id="us-visCda" style="stroke:#181818;stroke-width:1;"/></g><!--link adm to polSen--><g class="link" data-entity-1="ent0006" data-entity-2="ent0022" data-link-type="association" data-source-line="42" id="lnk28"><path d="M591.25,364.86 C603.43,393.38 619.98,432.13 631.33,458.7" fill="none" id="adm-polSen" style="stroke:#181818;stroke-width:1;"/></g><!--link us to logout--><g class="link" data-entity-1="ent0002" data-entity-2="ent0023" data-link-type="association" data-source-line="44" id="lnk29"><path d="M527.25,63.53 C554.49,82.83 597.51,113.96 633.25,142.79 C783.96,264.41 955.94,423.28 1009.46,473.22" fill="none" id="us-logout" style="stroke:#181818;stroke-width:1;"/></g><!--link adm to endSes--><g class="link" data-entity-1="ent0006" data-entity-2="ent0025" data-link-type="association" data-source-line="45" id="lnk30"><path d="M540.22,364.86 C511.47,395.62 471.6,438.28 446.89,464.72" fill="none" id="adm-endSes" style="stroke:#181818;stroke-width:1;"/></g><!--reverse link login to n1--><g class="link" data-entity-1="ent0020" data-entity-2="ent0031" data-link-type="dependency" data-source-line="48" id="lnk32"><path d="M256.813,509.7465 C269.393,534.4465 293.25,581.31 305.2,604.79" fill="none" id="login-backto-n1" style="stroke:#181818;stroke-width:1;stroke-dasharray:7,7;"/><polygon fill="#181818" points="254.09,504.4,254.6102,514.2351,256.3592,508.8554,261.7389,510.6044,254.09,504.4" style="stroke:#181818;stroke-width:1;"/><text fill="#000000" font-family="sans-serif" font-size="13" lengthAdjust="spacing" textLength="61.1851" x="289.25" y="571.1669">&#171;extend&#187;</text></g><!--link n1 to bloq--><g class="link" data-entity-1="ent0031" data-entity-2="ent0024" data-link-type="association" data-source-line="49" id="lnk33"><path d="M311.25,630.62 C311.25,646.13 311.25,673.26 311.25,690.75" fill="none" id="n1-bloq" style="stroke:#181818;stroke-width:1;stroke-dasharray:7,7;"/></g><?plantuml-src RL9DRzD04BtxLuno8P7QqeWFWHLLWWWuSGfmocMmjs65TyVisb6LqX-3E5GS-YlyntYpQwSHuk1eP_BUcpSVvUVO3x-2bP8uKX-ByeE9dOGKxWpY2K1hSRqROPNYWl6T6O6XAD_KpdeRky3roEVQ8HsZL1Qvd8gG_3JygRojX6gpzR5l9OmwdO7mkh57uQf1BBuxIbPI57sarS_pysGFNmwqrZ5GFnDApU8RKIYFBmVGUdmtZo1rKRHSVUUTePcM3z8Oc2Mk3BgPqMr1z8GkBvTd-7cEOFwU3oPG8plh5-eplKRKCmLyiR7dnXuuRD4SEkhi7ZYT02BCZEcQcsyS4trluxhcaVz2-HyPj42jDCD3PokEMmz3vgQrWOVxuRSynJfadz_flsZy90VMnansNgdSEr-P43W05ICOasdfkn7sMc5l6_dH6y1ovmdr5RaHy_9_KgauT8BGT3k9PtozmSOIDPY6AokU7PgNc78UNCpWeCOxMmjS1nGdrQHQB9RFKNHasAbWUwvjJ9SKi1nxdUyndf4pqGafjULWXdjsP7SzsrncdhjSv5tFiwk5siB5Q2OlyIIHbv4okBAKoWFzXwMg9vWJPI-mEBlT67AmaJfmJCSpo9k_c-cK_59dEXxIwk822IffjJ8tWDTNLwgs9EJdkeS55NT_0G00?></g></svg>