<?plantuml 1.2026.1beta5?><svg xmlns="http://www.w3.org/2000/svg" xmlns:xlink="http://www.w3.org/1999/xlink" contentStyleType="text/css" data-diagram-type="DESCRIPTION" height="553px" preserveAspectRatio="none" style="width:1446px;height:553px;background:#FFFFFF;" version="1.1" viewBox="0 0 1446 553" width="1446px" zoomAndPan="magnify"><defs/><g><!--cluster C?lculo e Simula??o Tribut?ria--><g class="cluster" data-qualified-name="C.lculo e Simula..o Tribut.ria" data-source-line="20" id="ent0019"><path d="M578.77,6 L820.6684,6 A3.75,3.75 0 0 1 823.1684,8.5 L830.1684,28.2969 L1436.81,28.2969 A2.5,2.5 0 0 1 1439.31,30.7969 L1439.31,543.5 A2.5,2.5 0 0 1 1436.81,546 L578.77,546 A2.5,2.5 0 0 1 576.27,543.5 L576.27,8.5 A2.5,2.5 0 0 1 578.77,6" fill="none" style="stroke:#000000;stroke-width:1.5;"/><line style="stroke:#000000;stroke-width:1.5;" x1="576.27" x2="830.1684" y1="28.2969" y2="28.2969"/><text fill="#000000" font-family="sans-serif" font-size="14" font-weight="bold" lengthAdjust="spacing" textLength="240.8984" x="580.27" y="20.9951">C&#225;lculo e Simula&#231;&#227;o Tribut&#225;ria</text></g><!--entity criarSim--><g class="entity" data-qualified-name="C.lculo e Simula..o Tribut.ria.criarSim" data-source-line="22" id="ent0020"><ellipse cx="979.1423" cy="506.0041" fill="#F1F1F1" rx="96.7223" ry="24.0241" style="stroke:#181818;stroke-width:0.5;"/><text fill="#000000" font-family="sans-serif" font-size="14" lengthAdjust="spacing" textLength="74.1084" x="942.0881" y="499.4898">Criar Nova</text><text fill="#000000" font-family="sans-serif" font-size="14" lengthAdjust="spacing" textLength="145.2979" x="906.4934" y="515.7867">Simula&#231;&#227;o Tribut&#225;ria</text></g><!--entity simSN--><g class="entity" data-qualified-name="C.lculo e Simula..o Tribut.ria.simSN" data-source-line="25" id="ent0021"><ellipse cx="979.1439" cy="406.9965" fill="#F1F1F1" rx="79.8839" ry="23.8665" style="stroke:#181818;stroke-width:0.5;"/><text fill="#000000" font-family="sans-serif" font-size="14" lengthAdjust="spacing" textLength="53.5117" x="952.388" y="400.2312">Simular</text><text fill="#000000" font-family="sans-serif" font-size="14" lengthAdjust="spacing" textLength="120.0938" x="919.097" y="416.528">Simples Nacional</text></g><!--entity simLP--><g class="entity" data-qualified-name="C.lculo e Simula..o Tribut.ria.simLP" data-source-line="28" id="ent0022"><ellipse cx="979.1411" cy="239.0027" fill="#F1F1F1" rx="78.0611" ry="23.8927" style="stroke:#181818;stroke-width:0.5;"/><text fill="#000000" font-family="sans-serif" font-size="14" lengthAdjust="spacing" textLength="53.5117" x="952.3853" y="232.2793">Simular</text><text fill="#000000" font-family="sans-serif" font-size="14" lengthAdjust="spacing" textLength="117.0996" x="920.5913" y="248.5761">Lucro Presumido</text></g><!--entity simLR--><g class="entity" data-qualified-name="C.lculo e Simula..o Tribut.ria.simLR" data-source-line="31" id="ent0023"><ellipse cx="979.136" cy="322.9982" fill="#F1F1F1" rx="52.276" ry="24.7182" style="stroke:#181818;stroke-width:0.5;"/><text fill="#000000" font-family="sans-serif" font-size="14" lengthAdjust="spacing" textLength="53.5117" x="952.3801" y="317.5573">Simular</text><text fill="#000000" font-family="sans-serif" font-size="14" lengthAdjust="spacing" textLength="73.9512" x="942.1604" y="333.8542">Lucro Real</text></g><!--entity visDet--><g class="entity" data-qualified-name="C.lculo e Simula..o Tribut.ria.visDet" data-source-line="34" id="ent0024"><ellipse cx="1311.0754" cy="322.9951" fill="#F1F1F1" rx="112.2254" ry="24.8451" style="stroke:#181818;stroke-width:0.5;"/><text fill="#000000" font-family="sans-serif" font-size="14" lengthAdjust="spacing" textLength="67.6758" x="1277.2375" y="315.0216">Visualizar</text><text fill="#000000" font-family="sans-serif" font-size="14" lengthAdjust="spacing" textLength="183.6885" x="1219.2312" y="331.3185">Detalhamento de Tributos</text></g><!--entity salvarSim--><g class="entity" data-qualified-name="C.lculo e Simula..o Tribut.ria.salvarSim" data-source-line="37" id="ent0025"><ellipse cx="674.8393" cy="395.9999" fill="#F1F1F1" rx="75.9493" ry="17.5899" style="stroke:#181818;stroke-width:0.5;"/><text fill="#000000" font-family="sans-serif" font-size="14" lengthAdjust="spacing" textLength="121.0234" x="614.3275" y="400.6483">Salvar Simula&#231;&#227;o</text></g><!--entity compReg--><g class="entity" data-qualified-name="C.lculo e Simula..o Tribut.ria.compReg" data-source-line="40" id="ent0026"><ellipse cx="979.1353" cy="65.0038" fill="#F1F1F1" rx="93.5453" ry="23.9838" style="stroke:#181818;stroke-width:0.5;"/><text fill="#000000" font-family="sans-serif" font-size="14" lengthAdjust="spacing" textLength="69.5352" x="944.3677" y="58.4255">Comparar</text><text fill="#000000" font-family="sans-serif" font-size="14" lengthAdjust="spacing" textLength="140.6426" x="908.814" y="74.7223">Regimes Tribut&#225;rios</text></g><!--entity notifImp--><g class="entity" data-qualified-name="C.lculo e Simula..o Tribut.ria.notifImp" data-source-line="43" id="ent0027"><ellipse cx="674.8397" cy="318.997" fill="#F1F1F1" rx="82.0897" ry="24.357" style="stroke:#181818;stroke-width:0.5;"/><text fill="#000000" font-family="sans-serif" font-size="14" lengthAdjust="spacing" textLength="120.7021" x="614.4886" y="317.9905">Notificar Impacto</text><text fill="#000000" font-family="sans-serif" font-size="14" lengthAdjust="spacing" textLength="75.1816" x="637.2489" y="334.2874">Legislativo</text></g><g class="entity" data-qualified-name="C.lculo e Simula..o Tribut.ria.n1" data-source-line="53" id="ent0033"><path d="M1226.67,474.3 L1226.67,499.02 L1076.01,504.84 L1226.67,507.02 L1226.67,529.6984 A0,0 0 0 0 1226.67,529.6984 L1395.5006,529.6984 A0,0 0 0 0 1395.5006,529.6984 L1395.5006,484.3 L1385.5006,474.3 L1226.67,474.3 A0,0 0 0 0 1226.67,474.3" fill="#FEFFDD" style="stroke:#181818;stroke-width:0.5;"/><path d="M1385.5006,474.3 L1385.5006,484.3 L1395.5006,484.3 L1385.5006,474.3" fill="#FEFFDD" style="stroke:#181818;stroke-width:0.5;"/><text fill="#000000" font-family="sans-serif" font-size="13" lengthAdjust="spacing" textLength="114.6387" x="1232.67" y="491.3669">Calcula com base</text><text fill="#000000" font-family="sans-serif" font-size="13" lengthAdjust="spacing" textLength="147.8306" x="1232.67" y="506.4997">no regime selecionado</text><text fill="#000000" font-family="sans-serif" font-size="13" lengthAdjust="spacing" textLength="80.0757" x="1232.67" y="521.6325">pelo usu&#225;rio</text></g><g class="entity" data-qualified-name="C.lculo e Simula..o Tribut.ria.n2" data-source-line="68" id="ent0043"><path d="M592.27,188.73 L592.27,259.2613 L757.4189,259.2613 L757.4189,198.73 L747.4189,188.73 L592.27,188.73" fill="#FEFFDD" style="stroke:#181818;stroke-width:0.5;"/><path d="M747.4189,188.73 L747.4189,198.73 L757.4189,198.73 L747.4189,188.73" fill="#FEFFDD" style="stroke:#181818;stroke-width:1;"/><text fill="#000000" font-family="sans-serif" font-size="13" lengthAdjust="spacing" textLength="119.7041" x="598.27" y="205.7969">Reutiliza dados de</text><text fill="#000000" font-family="sans-serif" font-size="13" lengthAdjust="spacing" textLength="144.1489" x="598.27" y="220.9297">simula&#231;oes existentes</text><text fill="#000000" font-family="sans-serif" font-size="13" lengthAdjust="spacing" textLength="109.2305" x="598.27" y="236.0625">e solicita apenas</text><text fill="#000000" font-family="sans-serif" font-size="13" lengthAdjust="spacing" textLength="69.9258" x="598.27" y="251.1953">o que falta</text></g><g class="entity" data-qualified-name="C.lculo e Simula..o Tribut.ria.n3" data-source-line="71" id="ent0045"><path d="M900.35,124.3 L900.35,179.6984 L1057.9198,179.6984 L1057.9198,134.3 L1047.9198,124.3 L900.35,124.3" fill="#FEFFDD" style="stroke:#181818;stroke-width:0.5;"/><path d="M1047.9198,124.3 L1047.9198,134.3 L1057.9198,134.3 L1047.9198,124.3" fill="#FEFFDD" style="stroke:#181818;stroke-width:1;"/><text fill="#000000" font-family="sans-serif" font-size="13" lengthAdjust="spacing" textLength="107.0215" x="906.35" y="141.3669">Badge vermelho</text><text fill="#000000" font-family="sans-serif" font-size="13" lengthAdjust="spacing" textLength="136.5698" x="906.35" y="156.4997">no card e notifica&#231;&#227;o</text><text fill="#000000" font-family="sans-serif" font-size="13" lengthAdjust="spacing" textLength="100.7183" x="906.35" y="171.6325">simples no sino</text></g><!--entity us--><g class="entity" data-qualified-name="us" data-source-line="1" id="ent0002"><ellipse cx="32.6021" cy="227.35" fill="#F1F1F1" rx="8" ry="8" style="stroke:#181818;stroke-width:0.5;"/><path d="M32.6021,235.35 L32.6021,262.35 M19.6021,243.35 L45.6021,243.35 M32.6021,262.35 L19.6021,277.35 M32.6021,262.35 L45.6021,277.35" fill="none" style="stroke:#181818;stroke-width:0.5;"/><text fill="#000000" font-family="sans-serif" font-size="14" lengthAdjust="spacing" textLength="53.2041" x="6" y="291.8451">Usu&#225;rio</text></g><!--entity ges--><g class="entity" data-qualified-name="ges" data-source-line="2" id="ent0003"><ellipse cx="331.2632" cy="167.35" fill="#F1F1F1" rx="8" ry="8" style="stroke:#181818;stroke-width:0.5;"/><path d="M331.2632,175.35 L331.2632,202.35 M318.2632,183.35 L344.2632,183.35 M331.2632,202.35 L318.2632,217.35 M331.2632,202.35 L344.2632,217.35" fill="none" style="stroke:#181818;stroke-width:0.5;"/><text fill="#000000" font-family="sans-serif" font-size="14" lengthAdjust="spacing" textLength="46.5664" x="307.98" y="231.8451">Gestor</text></g><!--entity usc--><g class="entity" data-qualified-name="usc" data-source-line="3" id="ent0004"><ellipse cx="176.2718" cy="286.35" fill="#F1F1F1" rx="8" ry="8" style="stroke:#181818;stroke-width:0.5;"/><path d="M176.2718,294.35 L176.2718,321.35 M163.2718,302.35 L189.2718,302.35 M176.2718,321.35 L163.2718,336.35 M176.2718,321.35 L189.2718,336.35" fill="none" style="stroke:#181818;stroke-width:0.5;"/><text fill="#000000" font-family="sans-serif" font-size="14" lengthAdjust="spacing" textLength="112.1436" x="120.2" y="350.8451">Usu&#225;rio Comum</text></g><!--entity ger--><g class="entity" data-qualified-name="ger" data-source-line="4" id="ent0005"><ellipse cx="479.7233" cy="105.35" fill="#F1F1F1" rx="8" ry="8" style="stroke:#181818;stroke-width:0.5;"/><path d="M479.7233,113.35 L479.7233,140.35 M466.7233,121.35 L492.7233,121.35 M479.7233,140.35 L466.7233,155.35 M479.7233,140.35 L492.7233,155.35" fill="none" style="stroke:#181818;stroke-width:0.5;"/><text fill="#000000" font-family="sans-serif" font-size="14" lengthAdjust="spacing" textLength="56.8066" x="451.32" y="169.8451">Gerente</text></g><!--entity adm--><g class="entity" data-qualified-name="adm" data-source-line="5" id="ent0006"><ellipse cx="479.73" cy="216.35" fill="#F1F1F1" rx="8" ry="8" style="stroke:#181818;stroke-width:0.5;"/><path d="M479.73,224.35 L479.73,251.35 M466.73,232.35 L492.73,232.35 M479.73,251.35 L466.73,266.35 M479.73,251.35 L492.73,266.35" fill="none" style="stroke:#181818;stroke-width:0.5;"/><text fill="#000000" font-family="sans-serif" font-size="14" lengthAdjust="spacing" textLength="99.0801" x="430.19" y="280.8451">Administrador</text></g><!--entity ass--><g class="entity" data-qualified-name="ass" data-source-line="6" id="ent0007"><ellipse cx="331.2643" cy="405.35" fill="#F1F1F1" rx="8" ry="8" style="stroke:#181818;stroke-width:0.5;"/><path d="M331.2643,413.35 L331.2643,440.35 M318.2643,421.35 L344.2643,421.35 M331.2643,440.35 L318.2643,455.35 M331.2643,440.35 L344.2643,455.35" fill="none" style="stroke:#181818;stroke-width:0.5;"/><text fill="#000000" font-family="sans-serif" font-size="14" lengthAdjust="spacing" textLength="70.3486" x="296.09" y="469.8451">Associado</text></g><!--entity tec--><g class="entity" data-qualified-name="tec" data-source-line="7" id="ent0008"><ellipse cx="331.2689" cy="278.2" fill="#F1F1F1" rx="8" ry="8" style="stroke:#181818;stroke-width:0.5;"/><path d="M331.2689,286.2 L331.2689,313.2 M318.2689,294.2 L344.2689,294.2 M331.2689,313.2 L318.2689,328.2 M331.2689,313.2 L344.2689,328.2" fill="none" style="stroke:#181818;stroke-width:0.5;"/><text fill="#000000" font-family="sans-serif" font-size="14" lengthAdjust="spacing" textLength="75.8379" x="293.35" y="342.6951">T&#233;cnico de</text><text fill="#000000" font-family="sans-serif" font-size="14" lengthAdjust="spacing" textLength="53.4775" x="293.35" y="358.992">suporte</text></g><!--entity cl--><g class="entity" data-qualified-name="cl" data-source-line="8" id="ent0009"><ellipse cx="479.7218" cy="327.35" fill="#F1F1F1" rx="8" ry="8" style="stroke:#181818;stroke-width:0.5;"/><path d="M479.7218,335.35 L479.7218,362.35 M466.7218,343.35 L492.7218,343.35 M479.7218,362.35 L466.7218,377.35 M479.7218,362.35 L492.7218,377.35" fill="none" style="stroke:#181818;stroke-width:0.5;"/><text fill="#000000" font-family="sans-serif" font-size="14" lengthAdjust="spacing" textLength="49.1436" x="455.15" y="391.8451">Cliente</text></g><!--entity co--><g class="entity" data-qualified-name="co" data-source-line="9" id="ent0010"><ellipse cx="479.7251" cy="438.35" fill="#F1F1F1" rx="8" ry="8" style="stroke:#181818;stroke-width:0.5;"/><path d="M479.7251,446.35 L479.7251,473.35 M466.7251,454.35 L492.7251,454.35 M479.7251,473.35 L466.7251,488.35 M479.7251,473.35 L492.7251,488.35" fill="none" style="stroke:#181818;stroke-width:0.5;"/><text fill="#000000" font-family="sans-serif" font-size="14" lengthAdjust="spacing" textLength="64.4902" x="447.48" y="502.8451">Contador</text></g><!--reverse link us to ges--><g class="link" data-entity-1="ent0002" data-entity-2="ent0003" data-link-type="extension" data-source-line="11" id="lnk11"><path d="M77.3127,248.1615 C134.7127,236.5515 253.59,212.51 307.66,201.57" fill="none" id="us-backto-ges" style="stroke:#181818;stroke-width:1;"/><polygon fill="none" points="59.67,251.73,78.5022,254.0424,76.1232,242.2806,59.67,251.73" style="stroke:#181818;stroke-width:1;"/></g><!--reverse link ges to adm--><g class="link" data-entity-1="ent0003" data-entity-2="ent0006" data-link-type="extension" data-source-line="12" id="lnk12"><path d="M371.8994,210.2627 C391.7994,216.9227 404.42,221.14 429.75,229.61" fill="none" id="ges-backto-adm" style="stroke:#181818;stroke-width:1;"/><polygon fill="none" points="354.83,204.55,369.9952,215.9525,373.8037,204.5729,354.83,204.55" style="stroke:#181818;stroke-width:1;"/></g><!--reverse link ges to ger--><g class="link" data-entity-1="ent0003" data-entity-2="ent0005" data-link-type="extension" data-source-line="13" id="lnk13"><path d="M371.4056,180.4323 C397.2456,169.4923 423.01,158.59 450.88,146.79" fill="none" id="ges-backto-ger" style="stroke:#181818;stroke-width:1;"/><polygon fill="none" points="354.83,187.45,373.7449,185.9575,369.0664,174.9071,354.83,187.45" style="stroke:#181818;stroke-width:1;"/></g><!--reverse link us to usc--><g class="link" data-entity-1="ent0002" data-entity-2="ent0004" data-link-type="extension" data-source-line="14" id="lnk14"><path d="M76.2057,274.7424 C93.0557,281.7624 99.05,284.26 119.81,292.9" fill="none" id="us-backto-usc" style="stroke:#181818;stroke-width:1;"/><polygon fill="none" points="59.59,267.82,73.8982,280.2809,78.5131,269.2038,59.59,267.82" style="stroke:#181818;stroke-width:1;"/></g><!--reverse link usc to ass--><g class="link" data-entity-1="ent0004" data-entity-2="ent0007" data-link-type="extension" data-source-line="15" id="lnk15"><path d="M241.1577,365.6918 C263.6677,383.2018 275.52,392.41 295.83,408.22" fill="none" id="usc-backto-ass" style="stroke:#181818;stroke-width:1;"/><polygon fill="none" points="226.95,354.64,237.4737,370.4277,244.8416,360.9559,226.95,354.64" style="stroke:#181818;stroke-width:1;"/></g><!--reverse link ass to co--><g class="link" data-entity-1="ent0007" data-entity-2="ent0010" data-link-type="extension" data-source-line="16" id="lnk16"><path d="M384.1608,446.6921 C408.5108,452.1721 423.39,455.53 447.1,460.88" fill="none" id="ass-backto-co" style="stroke:#181818;stroke-width:1;"/><polygon fill="none" points="366.6,442.74,382.8434,452.5457,385.4781,440.8385,366.6,442.74" style="stroke:#181818;stroke-width:1;"/></g><!--reverse link ass to cl--><g class="link" data-entity-1="ent0007" data-entity-2="ent0009" data-link-type="extension" data-source-line="17" id="lnk17"><path d="M382.4877,408.2495 C409.5477,393.8395 430.69,382.58 454.66,369.81" fill="none" id="ass-backto-cl" style="stroke:#181818;stroke-width:1;"/><polygon fill="none" points="366.6,416.71,385.3079,413.5454,379.6675,402.9536,366.6,416.71" style="stroke:#181818;stroke-width:1;"/></g><!--reverse link usc to tec--><g class="link" data-entity-1="ent0004" data-entity-2="ent0008" data-link-type="extension" data-source-line="18" id="lnk18"><path d="M250.51,316 C270.71,316 275.06,316 293.28,316" fill="none" id="usc-backto-tec" style="stroke:#181818;stroke-width:1;"/><polygon fill="none" points="232.51,316,250.51,322,250.51,310,232.51,316" style="stroke:#181818;stroke-width:1;"/></g><!--link co to criarSim--><g class="link" data-entity-1="ent0010" data-entity-2="ent0020" data-link-type="association" data-source-line="46" id="lnk28"><path d="M512.33,480.26 C526.46,485.17 543.47,490.29 559.27,493 C669.52,511.88 798.43,512.77 883.82,510.47" fill="none" id="co-criarSim" style="stroke:#181818;stroke-width:1;"/></g><!--link ger to criarSim--><g class="link" data-entity-1="ent0005" data-entity-2="ent0020" data-link-type="association" data-source-line="47" id="lnk29"><path d="M508.25,131.03 C561.38,124.86 679.67,118.64 757.41,171 C828.56,218.92 819.67,259.72 852.41,339 C871.59,385.44 852.11,407.92 882.41,448 C894.25,463.66 911.65,475.99 928.37,485.18" fill="none" id="ger-criarSim" style="stroke:#181818;stroke-width:1;"/></g><!--link criarSim to simSN--><g class="link" data-entity-1="ent0020" data-entity-2="ent0021" data-link-type="dependency" data-source-line="49" id="lnk30"><path d="M979.14,481.53 C979.14,466.18 979.14,452.48 979.14,437.19" fill="none" id="criarSim-to-simSN" style="stroke:#181818;stroke-width:1;stroke-dasharray:7,7;"/><polygon fill="#181818" points="979.14,431.19,975.14,440.19,979.14,436.19,983.14,440.19,979.14,431.19" style="stroke:#181818;stroke-width:1;"/><text fill="#000000" font-family="sans-serif" font-size="13" lengthAdjust="spacing" textLength="63.0068" x="936.14" y="460.9869">&#171;include&#187;</text></g><!--link criarSim to simLP--><g class="link" data-entity-1="ent0020" data-entity-2="ent0022" data-link-type="dependency" data-source-line="50" id="lnk31"><path d="M919.27,486.77 C864.48,465.31 794.65,426 813.95,369.5 C830.03,322.44 843.16,311.53 882.41,281 C895.13,271.11 905.0142,265.4213 919.7542,259.1113" fill="none" id="criarSim-to-simLP" style="stroke:#181818;stroke-width:1;stroke-dasharray:7,7;"/><polygon fill="#181818" points="925.27,256.75,915.4221,256.6147,920.6735,258.7177,918.5704,263.9691,925.27,256.75" style="stroke:#181818;stroke-width:1;"/><text fill="#000000" font-family="sans-serif" font-size="13" lengthAdjust="spacing" textLength="63.0068" x="788.41" y="382.5669">&#171;include&#187;</text></g><!--link criarSim to simLR--><g class="link" data-entity-1="ent0020" data-entity-2="ent0023" data-link-type="dependency" data-source-line="51" id="lnk32"><path d="M928.26,485.13 C864.29,455.99 768.07,400.69 813.95,347.5 C841.6,315.45 885.4581,311.5239 923.1881,314.4639" fill="none" id="criarSim-to-simLR" style="stroke:#181818;stroke-width:1;stroke-dasharray:7,7;"/><polygon fill="#181818" points="929.17,314.93,920.5079,310.2429,924.1851,314.5416,919.8865,318.2187,929.17,314.93" style="stroke:#181818;stroke-width:1;"/><text fill="#000000" font-family="sans-serif" font-size="13" lengthAdjust="spacing" textLength="63.0068" x="788.41" y="360.5669">&#171;include&#187;</text></g><!--reverse link simSN to visDet--><g class="link" data-entity-1="ent0021" data-entity-2="ent0024" data-link-type="dependency" data-source-line="56" id="lnk35"><path d="M1046.8545,390.0194 C1101.8745,376.0094 1177.19,356.83 1235.96,341.87" fill="none" id="simSN-backto-visDet" style="stroke:#181818;stroke-width:1;stroke-dasharray:7,7;"/><polygon fill="#181818" points="1041.04,391.5,1050.7487,393.1555,1045.8854,390.2662,1048.7746,385.4028,1041.04,391.5" style="stroke:#181818;stroke-width:1;"/><text fill="#000000" font-family="sans-serif" font-size="13" lengthAdjust="spacing" textLength="61.1851" x="1106.86" y="356.0669">&#171;extend&#187;</text></g><!--reverse link simLP to visDet--><g class="link" data-entity-1="ent0022" data-entity-2="ent0024" data-link-type="dependency" data-source-line="57" id="lnk36"><path d="M1046.0845,255.7906 C1101.1045,269.8006 1176.87,289.09 1235.92,304.12" fill="none" id="simLP-backto-visDet" style="stroke:#181818;stroke-width:1;stroke-dasharray:7,7;"/><polygon fill="#181818" points="1040.27,254.31,1048.0046,260.4072,1045.1154,255.5438,1049.9787,252.6545,1040.27,254.31" style="stroke:#181818;stroke-width:1;"/><text fill="#000000" font-family="sans-serif" font-size="13" lengthAdjust="spacing" textLength="61.1851" x="1106.86" y="270.0669">&#171;extend&#187;</text></g><!--reverse link simLR to visDet--><g class="link" data-entity-1="ent0023" data-entity-2="ent0024" data-link-type="dependency" data-source-line="58" id="lnk37"><path d="M1037.69,323 C1082.19,323 1142.02,323 1198.49,323" fill="none" id="simLR-backto-visDet" style="stroke:#181818;stroke-width:1;stroke-dasharray:7,7;"/><polygon fill="#181818" points="1031.69,323,1040.69,327,1036.69,323,1040.69,319,1031.69,323" style="stroke:#181818;stroke-width:1;"/><text fill="#000000" font-family="sans-serif" font-size="13" lengthAdjust="spacing" textLength="61.1851" x="1106.86" y="319.0669">&#171;extend&#187;</text></g><!--link co to salvarSim--><g class="link" data-entity-1="ent0010" data-entity-2="ent0025" data-link-type="association" data-source-line="60" id="lnk38"><path d="M512.18,456.27 C545.21,443.96 597.25,424.56 633.33,411.1" fill="none" id="co-salvarSim" style="stroke:#181818;stroke-width:1;"/></g><!--link ger to salvarSim--><g class="link" data-entity-1="ent0005" data-entity-2="ent0025" data-link-type="association" data-source-line="61" id="lnk39"><path d="M508.38,160.96 C516.15,169.54 523.92,179.57 529.27,190 C564.82,259.37 515.85,303.3 568.27,361 C579.37,373.22 594.83,381.18 610.5,386.37" fill="none" id="ger-salvarSim" style="stroke:#181818;stroke-width:1;"/></g><!--reverse link salvarSim to criarSim--><g class="link" data-entity-1="ent0025" data-entity-2="ent0020" data-link-type="dependency" data-source-line="63" id="lnk40"><path d="M722.5585,413.0011 C775.9985,432.4411 863.88,464.42 923.32,486.05" fill="none" id="salvarSim-backto-criarSim" style="stroke:#181818;stroke-width:1;stroke-dasharray:7,7;"/><polygon fill="#181818" points="716.92,410.95,724.0103,417.7857,721.6188,412.6593,726.7452,410.2677,716.92,410.95" style="stroke:#181818;stroke-width:1;"/><text fill="#000000" font-family="sans-serif" font-size="13" lengthAdjust="spacing" textLength="61.1851" x="789.41" y="434.0669">&#171;extend&#187;</text></g><!--link co to compReg--><g class="link" data-entity-1="ent0010" data-entity-2="ent0026" data-link-type="association" data-source-line="65" id="lnk41"><path d="M512.26,471.03 C593.1,478.04 804.7,491.45 852.41,445 C906.44,392.4 838.42,168.24 882.41,107 C890.14,96.24 901.25,88.2 913.17,82.21" fill="none" id="co-compReg" style="stroke:#181818;stroke-width:1;"/></g><!--link ger to compReg--><g class="link" data-entity-1="ent0005" data-entity-2="ent0026" data-link-type="association" data-source-line="66" id="lnk42"><path d="M508.35,124.71 C523.24,119.54 542.04,113.63 559.27,110 C670.73,86.52 801.61,74.95 887.02,69.5" fill="none" id="ger-compReg" style="stroke:#181818;stroke-width:1;"/></g><!--link n2 to compReg--><g class="link" data-entity-1="ent0043" data-entity-2="ent0026" data-link-type="association" data-source-line="69" id="lnk44"><path d="M735.08,188.32 C775.91,164.25 831.74,132.38 882.41,107 C897.34,99.52 913.9,91.99 929,85.42" fill="none" id="n2-compReg" style="stroke:#181818;stroke-width:1;stroke-dasharray:7,7;"/></g><!--link notifImp to n3--><g class="link" data-entity-1="ent0027" data-entity-2="ent0045" data-link-type="association" data-source-line="72" id="lnk46"><path d="M718.14,298.12 C730.89,291.58 744.83,284.2 757.41,277 C814.46,244.37 824.92,229.84 882.41,198 C893.38,191.93 905.28,185.83 916.83,180.16" fill="none" id="notifImp-n3" style="stroke:#181818;stroke-width:1;stroke-dasharray:7,7;"/></g><?plantuml-src ZLJBRXCn5DtFLrnrGogHgabe2r5KgGI1aA8echIikd4zRchXiOCVKSNZOoeMYE_8Zt7zcF5CeS1YfBdNn-SUtzVqohZzW-Pg2iI0CyNq7JDMwM1k6DeD0EQgTdM2KO_JJ5gMWBgONbGrbznOJQfqdrGrkerHbAClkWnINkv_KicfWefTI-EsIYSUov1uBdXBJ0NQIjgMaggYS0PcNuV380-_QFXOhU7rD2Wl5h-4ml3uHGEvyh_88Az2i5iBLe7ccpiB5TUCMgvaiINq8zamE9Zl7mHrGW63DQ-T8FiV--yABZM_STOdZ1p0bmBW6LpDJs08vTlX_68nF3uUFS__fmWOp16hOQbsv5e-GNKOdkvn2C0xYVSqywwNFUfWZllcf6--yB5ZF1q2RmMcRqaeFfE84D7mUhtCuSvokCMg5owOuxuvwV4l7DKALfePL_DADVIBLQP_rQ4l-_HbdxvyWhvaMVYYpCmlk_aV-uiVk754yC_-xXjcYRWZDJQTxyYKTsK2quuRFCzKe-CkrwHJovXF8dPOp4uPevxWxjLkDEeIdOH6KFMMQ2-fP1jUOpLo2oGv525uM3GaPrsICq-oL9RVSeeYtYCRjGgJWsn64CjtKOtq43oDB9g9MFEG08C-74oSWa7JRuVeme5wvFEnMWkEpc4GkkKGfZ2RSKc5gzZv-HzHYzL_eSh7A8IXT3zxn8yUyTc06s9mYKYSr90pC4omy9mANxvbEA0kBR23yFRHes17tkLzIVuCFODOzHYVtLicgoWoYVydflmR9cUuROjkYZlEGDUQaJ9BVu8qjKYlQeshpM39dEM-_w72H9cuY5FJAcmyTe-Bt6zXSoqnfqfmoYq1icMIe4l19yVWbWXBObRzKCan186_1NjDAjoOEwPh9kvKA1RsPuMRKwPc3PCI58GbX033PIfO6FIcPMF19iMtNm00?></g></svg>