<?plantuml 1.2026.1beta5?><svg xmlns="http://www.w3.org/2000/svg" xmlns:xlink="http://www.w3.org/1999/xlink" contentStyleType="text/css" data-diagram-type="DESCRIPTION" height="467px" preserveAspectRatio="none" style="width:1129px;height:467px;background:#FFFFFF;" version="1.1" viewBox="0 0 1129 467" width="1129px" zoomAndPan="magnify"><defs/><g><!--cluster SST--><g class="cluster" data-qualified-name="SST" data-source-line="3" id="ent0002"><rect fill="none" height="454" rx="2.5" ry="2.5" style="stroke:#181818;stroke-width:1;" width="1116.25" x="7" y="7"/><text fill="#000000" font-family="sans-serif" font-size="14" font-weight="bold" lengthAdjust="spacing" textLength="29.7158" x="550.2671" y="21.9951">SST</text></g><!--entity ai--><g class="entity" data-qualified-name="SST.ai" data-source-line="4" id="ent0003"><path d="M274.77,389.2 L302.0161,389.2 A3.75,3.75 0 0 1 304.5161,391.7 L311.5161,411.4969 L514.9858,411.4969 A2.5,2.5 0 0 1 517.4858,413.9969 L517.4858,442.2938 A2.5,2.5 0 0 1 514.9858,444.7938 L274.77,444.7938 A2.5,2.5 0 0 1 272.27,442.2938 L272.27,391.7 A2.5,2.5 0 0 1 274.77,389.2" fill="#F1F1F1" style="stroke:#181818;stroke-width:0.5;"/><line style="stroke:#181818;stroke-width:0.5;" x1="272.27" x2="311.5161" y1="411.4969" y2="411.4969"/><text fill="#000000" font-family="sans-serif" font-size="14" font-weight="bold" lengthAdjust="spacing" textLength="14.2461" x="282.27" y="405.1951">ai</text><text fill="#000000" font-family="sans-serif" font-size="14" lengthAdjust="spacing" textLength="215.2158" x="282.27" y="431.492">Administra&#231;&#227;o e Infraestrutura</text></g><!--entity ca--><g class="entity" data-qualified-name="SST.ca" data-source-line="5" id="ent0004"><path d="M25.5,202.2 L56.2461,202.2 A3.75,3.75 0 0 1 58.7461,204.7 L65.7461,224.4969 L185.4688,224.4969 A2.5,2.5 0 0 1 187.9688,226.9969 L187.9688,255.2938 A2.5,2.5 0 0 1 185.4688,257.7938 L25.5,257.7938 A2.5,2.5 0 0 1 23,255.2938 L23,204.7 A2.5,2.5 0 0 1 25.5,202.2" fill="#F1F1F1" style="stroke:#181818;stroke-width:0.5;"/><line style="stroke:#181818;stroke-width:0.5;" x1="23" x2="65.7461" y1="224.4969" y2="224.4969"/><text fill="#000000" font-family="sans-serif" font-size="14" font-weight="bold" lengthAdjust="spacing" textLength="17.7461" x="33" y="218.1951">ca</text><text fill="#000000" font-family="sans-serif" font-size="14" lengthAdjust="spacing" textLength="134.9688" x="33" y="244.492">Controle de Acesso</text></g><!--entity gu--><g class="entity" data-qualified-name="SST.gu" data-source-line="6" id="ent0005"><path d="M317.88,298.2 L350.8683,298.2 A3.75,3.75 0 0 1 353.3683,300.7 L360.3683,320.4969 L471.8741,320.4969 A2.5,2.5 0 0 1 474.3741,322.9969 L474.3741,351.2938 A2.5,2.5 0 0 1 471.8741,353.7938 L317.88,353.7938 A2.5,2.5 0 0 1 315.38,351.2938 L315.38,300.7 A2.5,2.5 0 0 1 317.88,298.2" fill="#F1F1F1" style="stroke:#181818;stroke-width:0.5;"/><line style="stroke:#181818;stroke-width:0.5;" x1="315.38" x2="360.3683" y1="320.4969" y2="320.4969"/><text fill="#000000" font-family="sans-serif" font-size="14" font-weight="bold" lengthAdjust="spacing" textLength="19.9883" x="325.38" y="314.1951">gu</text><text fill="#000000" font-family="sans-serif" font-size="14" lengthAdjust="spacing" textLength="128.9941" x="325.38" y="340.492">Gest&#227;o de Usu&#225;rio</text></g><!--entity ala--><g class="entity" data-qualified-name="SST.ala" data-source-line="7" id="ent0006"><path d="M250.47,170.2 L287.1634,170.2 A3.75,3.75 0 0 1 289.6634,172.7 L296.6634,192.4969 L539.2893,192.4969 A2.5,2.5 0 0 1 541.7893,194.9969 L541.7893,223.2938 A2.5,2.5 0 0 1 539.2893,225.7938 L250.47,225.7938 A2.5,2.5 0 0 1 247.97,223.2938 L247.97,172.7 A2.5,2.5 0 0 1 250.47,170.2" fill="#F1F1F1" style="stroke:#181818;stroke-width:0.5;"/><line style="stroke:#181818;stroke-width:0.5;" x1="247.97" x2="296.6634" y1="192.4969" y2="192.4969"/><text fill="#000000" font-family="sans-serif" font-size="14" font-weight="bold" lengthAdjust="spacing" textLength="23.6934" x="257.97" y="186.1951">ala</text><text fill="#000000" font-family="sans-serif" font-size="14" lengthAdjust="spacing" textLength="263.8193" x="257.97" y="212.492">Atualiza&#231;&#227;o de Legisla&#231;&#227;o e Al&#237;quotas</text></g><!--entity rd--><g class="entity" data-qualified-name="SST.rd" data-source-line="8" id="ent0007"><path d="M908.37,202.2 L938.2958,202.2 A3.75,3.75 0 0 1 940.7958,204.7 L947.7958,224.4969 L1104.747,224.4969 A2.5,2.5 0 0 1 1107.247,226.9969 L1107.247,255.2938 A2.5,2.5 0 0 1 1104.747,257.7938 L908.37,257.7938 A2.5,2.5 0 0 1 905.87,255.2938 L905.87,204.7 A2.5,2.5 0 0 1 908.37,202.2" fill="#F1F1F1" style="stroke:#181818;stroke-width:0.5;"/><line style="stroke:#181818;stroke-width:0.5;" x1="905.87" x2="947.7958" y1="224.4969" y2="224.4969"/><text fill="#000000" font-family="sans-serif" font-size="14" font-weight="bold" lengthAdjust="spacing" textLength="16.9258" x="915.87" y="218.1951">rd</text><text fill="#000000" font-family="sans-serif" font-size="14" lengthAdjust="spacing" textLength="171.377" x="915.87" y="244.492">Relat&#243;rios e Dashboards</text></g><!--entity idv--><g class="entity" data-qualified-name="SST.idv" data-source-line="9" id="ent0008"><path d="M260.64,79.2 L297.5863,79.2 A3.75,3.75 0 0 1 300.0863,81.7 L307.0863,101.4969 L529.1156,101.4969 A2.5,2.5 0 0 1 531.6156,103.9969 L531.6156,132.2938 A2.5,2.5 0 0 1 529.1156,134.7938 L260.64,134.7938 A2.5,2.5 0 0 1 258.14,132.2938 L258.14,81.7 A2.5,2.5 0 0 1 260.64,79.2" fill="#F1F1F1" style="stroke:#181818;stroke-width:0.5;"/><line style="stroke:#181818;stroke-width:0.5;" x1="258.14" x2="307.0863" y1="101.4969" y2="101.4969"/><text fill="#000000" font-family="sans-serif" font-size="14" font-weight="bold" lengthAdjust="spacing" textLength="23.9463" x="268.14" y="95.1951">idv</text><text fill="#000000" font-family="sans-serif" font-size="14" lengthAdjust="spacing" textLength="243.4756" x="268.14" y="121.492">Importa&#231;&#227;o de Dados e Valida&#231;&#245;es</text></g><!--entity cst--><g class="entity" data-qualified-name="SST.cst" data-source-line="10" id="ent0009"><path d="M604.29,125.2 L640.6142,125.2 A3.75,3.75 0 0 1 643.1142,127.7 L650.1142,147.4969 L843.3711,147.4969 A2.5,2.5 0 0 1 845.8711,149.9969 L845.8711,178.2938 A2.5,2.5 0 0 1 843.3711,180.7938 L604.29,180.7938 A2.5,2.5 0 0 1 601.79,178.2938 L601.79,127.7 A2.5,2.5 0 0 1 604.29,125.2" fill="#F1F1F1" style="stroke:#181818;stroke-width:0.5;"/><line style="stroke:#181818;stroke-width:0.5;" x1="601.79" x2="650.1142" y1="147.4969" y2="147.4969"/><text fill="#000000" font-family="sans-serif" font-size="14" font-weight="bold" lengthAdjust="spacing" textLength="23.3242" x="611.79" y="141.1951">cst</text><text fill="#000000" font-family="sans-serif" font-size="14" lengthAdjust="spacing" textLength="214.0811" x="611.79" y="167.492">C&#225;lculo e Simula&#231;&#227;o Tribut&#225;ria</text></g><!--reverse link cst to rd--><g class="link" data-entity-1="ent0009" data-entity-2="ent0007" data-link-type="dependency" data-source-line="12" id="lnk10"><path d="M833.5559,182.8186 C858.9059,189.7786 880.23,195.62 905.44,202.54" fill="none" id="cst-backto-rd" style="stroke:#181818;stroke-width:1;stroke-dasharray:7,7;"/><polygon fill="#181818" points="827.77,181.23,835.3898,187.4701,832.5916,182.5538,837.5079,179.7556,827.77,181.23" style="stroke:#181818;stroke-width:1;"/></g><!--reverse link idv to cst--><g class="link" data-entity-1="ent0008" data-entity-2="ent0009" data-link-type="dependency" data-source-line="13" id="lnk11"><path d="M537.6314,126.9463 C560.7914,130.2063 578.78,132.73 601.53,135.93" fill="none" id="idv-backto-cst" style="stroke:#181818;stroke-width:1;stroke-dasharray:7,7;"/><polygon fill="#181818" points="531.69,126.11,540.0446,131.3254,536.6412,126.8069,541.1597,123.4035,531.69,126.11" style="stroke:#181818;stroke-width:1;"/></g><!--reverse link ala to cst--><g class="link" data-entity-1="ent0006" data-entity-2="ent0009" data-link-type="dependency" data-source-line="14" id="lnk12"><path d="M548.0839,199.3481 C567.9739,196.6081 582.27,172.35 601.65,169.68" fill="none" id="ala-backto-cst" style="stroke:#181818;stroke-width:1;stroke-dasharray:7,7;"/><polygon fill="#181818" points="542.14,200.1669,551.6017,202.9012,547.0932,199.4845,550.5099,194.9761,542.14,200.1669" style="stroke:#181818;stroke-width:1;"/></g><!--reverse link ca to gu--><g class="link" data-entity-1="ent0004" data-entity-2="ent0005" data-link-type="dependency" data-source-line="16" id="lnk13"><path d="M194.1508,259.2812 C233.9608,272.5812 275.9,286.59 315.26,299.74" fill="none" id="ca-backto-gu" style="stroke:#181818;stroke-width:1;stroke-dasharray:7,7;"/><polygon fill="#181818" points="188.46,257.38,195.7287,264.0257,193.2023,258.9644,198.2637,256.438,188.46,257.38" style="stroke:#181818;stroke-width:1;"/></g><!--reverse link ca to ai--><g class="link" data-entity-1="ent0004" data-entity-2="ent0003" data-link-type="dependency" data-source-line="17" id="lnk14"><path d="M131.4549,262.7978 C156.7949,294.5178 198.28,340.91 247.97,371 C259.21,377.81 271.57,383.71 284.18,388.79" fill="none" id="ca-backto-ai" style="stroke:#181818;stroke-width:1;stroke-dasharray:7,7;"/><polygon fill="#181818" points="127.71,258.11,130.2022,267.6383,130.8308,262.0165,136.4526,262.6451,127.71,258.11" style="stroke:#181818;stroke-width:1;"/></g><!--reverse link ca to cst--><g class="link" data-entity-1="ent0004" data-entity-2="ent0009" data-link-type="dependency" data-source-line="18" id="lnk15"><path d="M122.8352,219.023 C143.8752,179.243 185.74,90.95 247.97,62 C366.37,6.92 414.73,31.86 541.79,62 C592.62,74.06 645.39,125.0469 680.76,147.0069" fill="none" id="ca-backto-cst" style="stroke:#181818;stroke-width:1;stroke-dasharray:7,7;"/><polygon fill="#181818" points="120.03,224.3269,127.7738,218.2413,122.3677,219.907,120.702,214.501,120.03,224.3269" style="stroke:#181818;stroke-width:1;"/></g><!--reverse link ca to ala--><g class="link" data-entity-1="ent0004" data-entity-2="ent0006" data-link-type="dependency" data-source-line="19" id="lnk16"><path d="M194.4231,242.5025 C213.0031,240.4325 227.32,216.55 247.67,214.28" fill="none" id="ca-backto-ala" style="stroke:#181818;stroke-width:1;stroke-dasharray:7,7;"/><polygon fill="#181818" points="188.46,243.1669,197.8476,246.1458,193.4293,242.6132,196.9618,238.1949,188.46,243.1669" style="stroke:#181818;stroke-width:1;"/></g><!--reverse link ca to rd--><g class="link" data-entity-1="ent0004" data-entity-2="ent0007" data-link-type="dependency" data-source-line="20" id="lnk17"><path d="M194.296,239.3358 C213.816,241.0858 228.63,242.11 247.97,243 C483.52,253.8 760.63,243.1 905.62,235.72" fill="none" id="ca-backto-rd" style="stroke:#181818;stroke-width:1;stroke-dasharray:7,7;"/><polygon fill="#181818" points="188.32,238.8,196.9269,243.5877,193.3,239.2465,197.6412,235.6196,188.32,238.8" style="stroke:#181818;stroke-width:1;"/></g><!--reverse link ca to idv--><g class="link" data-entity-1="ent0004" data-entity-2="ent0008" data-link-type="dependency" data-source-line="21" id="lnk18"><path d="M158.0295,221.1054 C185.1195,205.3854 215.15,166.95 247.97,153 C263,146.61 279.23,140.64 295.22,135.25" fill="none" id="ca-backto-idv" style="stroke:#181818;stroke-width:1;stroke-dasharray:7,7;"/><polygon fill="#181818" points="152.84,224.1169,162.6319,223.0594,157.1646,221.6074,158.6167,216.14,152.84,224.1169" style="stroke:#181818;stroke-width:1;"/></g><?plantuml-src LL1BJWCn3DtFAQmUe2TWCw8IgiIAAUpT99rQP2R5SLY0E4p5WXKhn0boCVAPbfbLREVzR6iE0kA0gJyAQ6AZXDpODBd0iRS6kcu7xmt02TKpzWPMhHve92-CyIj-EZ2m7G-C9as21COLe0UaEUNMZS8kYMa3hJBUkm9IE0VT9OMibp2FFiGpKqNrOU4k0IszJTu9UszwylQQfRNn-oKuGLzps8N7Wx4eyIT9-uJTe3_k7RAkMDPpw7OuEPP_dmtgGdfAzZgFVqsbaNvTx1hFLWMRitGqX4ko7TC-IDwg7aXvQH8jFN2pNbVlf5IQ_0Sv-hNBoDgLQqnrERB26UVoKRQUcY8zrJdhnny0?></g></svg>