<?plantuml 1.2026.1beta5?><svg xmlns="http://www.w3.org/2000/svg" xmlns:xlink="http://www.w3.org/1999/xlink" contentStyleType="text/css" data-diagram-type="DESCRIPTION" height="826px" preserveAspectRatio="none" style="width:902px;height:826px;background:#FFFFFF;" version="1.1" viewBox="0 0 902 826" width="902px" zoomAndPan="magnify"><defs/><g><!--cluster SST--><g class="cluster" data-qualified-name="SST" data-source-line="22" id="ent0019"><rect fill="none" height="653" rx="2.5" ry="2.5" style="stroke:#181818;stroke-width:1;" width="325.81" x="570.27" y="7"/><text fill="#000000" font-family="sans-serif" font-size="14" font-weight="bold" lengthAdjust="spacing" textLength="29.7158" x="718.3171" y="21.9951">SST</text></g><!--entity ai--><g class="entity" data-qualified-name="SST.ai" data-source-line="23" id="ent0020"><path d="M613.07,497.2 L640.3161,497.2 A3.75,3.75 0 0 1 642.8161,499.7 L649.8161,519.4969 L853.2858,519.4969 A2.5,2.5 0 0 1 855.7858,521.9969 L855.7858,550.2938 A2.5,2.5 0 0 1 853.2858,552.7938 L613.07,552.7938 A2.5,2.5 0 0 1 610.57,550.2938 L610.57,499.7 A2.5,2.5 0 0 1 613.07,497.2" fill="#F1F1F1" style="stroke:#181818;stroke-width:0.5;"/><line style="stroke:#181818;stroke-width:0.5;" x1="610.57" x2="649.8161" y1="519.4969" y2="519.4969"/><text fill="#000000" font-family="sans-serif" font-size="14" font-weight="bold" lengthAdjust="spacing" textLength="14.2461" x="620.57" y="513.1951">ai</text><text fill="#000000" font-family="sans-serif" font-size="14" lengthAdjust="spacing" textLength="215.2158" x="620.57" y="539.492">Administra&#231;&#227;o e Infraestrutura</text></g><!--entity ca--><g class="entity" data-qualified-name="SST.ca" data-source-line="24" id="ent0021"><path d="M653.19,588.2 L683.9361,588.2 A3.75,3.75 0 0 1 686.4361,590.7 L693.4361,610.4969 L813.1588,610.4969 A2.5,2.5 0 0 1 815.6588,612.9969 L815.6588,641.2938 A2.5,2.5 0 0 1 813.1588,643.7938 L653.19,643.7938 A2.5,2.5 0 0 1 650.69,641.2938 L650.69,590.7 A2.5,2.5 0 0 1 653.19,588.2" fill="#F1F1F1" style="stroke:#181818;stroke-width:0.5;"/><line style="stroke:#181818;stroke-width:0.5;" x1="650.69" x2="693.4361" y1="610.4969" y2="610.4969"/><text fill="#000000" font-family="sans-serif" font-size="14" font-weight="bold" lengthAdjust="spacing" textLength="17.7461" x="660.69" y="604.1951">ca</text><text fill="#000000" font-family="sans-serif" font-size="14" lengthAdjust="spacing" textLength="134.9688" x="660.69" y="630.492">Controle de Acesso</text></g><!--entity gu--><g class="entity" data-qualified-name="SST.gu" data-source-line="25" id="ent0022"><path d="M656.18,406.2 L689.1683,406.2 A3.75,3.75 0 0 1 691.6683,408.7 L698.6683,428.4969 L810.1741,428.4969 A2.5,2.5 0 0 1 812.6741,430.9969 L812.6741,459.2938 A2.5,2.5 0 0 1 810.1741,461.7938 L656.18,461.7938 A2.5,2.5 0 0 1 653.68,459.2938 L653.68,408.7 A2.5,2.5 0 0 1 656.18,406.2" fill="#F1F1F1" style="stroke:#181818;stroke-width:0.5;"/><line style="stroke:#181818;stroke-width:0.5;" x1="653.68" x2="698.6683" y1="428.4969" y2="428.4969"/><text fill="#000000" font-family="sans-serif" font-size="14" font-weight="bold" lengthAdjust="spacing" textLength="19.9883" x="663.68" y="422.1951">gu</text><text fill="#000000" font-family="sans-serif" font-size="14" lengthAdjust="spacing" textLength="128.9941" x="663.68" y="448.492">Gest&#227;o de Usu&#225;rio</text></g><!--entity ala--><g class="entity" data-qualified-name="SST.ala" data-source-line="26" id="ent0023"><path d="M588.77,315.2 L625.4634,315.2 A3.75,3.75 0 0 1 627.9634,317.7 L634.9634,337.4969 L877.5893,337.4969 A2.5,2.5 0 0 1 880.0893,339.9969 L880.0893,368.2938 A2.5,2.5 0 0 1 877.5893,370.7938 L588.77,370.7938 A2.5,2.5 0 0 1 586.27,368.2938 L586.27,317.7 A2.5,2.5 0 0 1 588.77,315.2" fill="#F1F1F1" style="stroke:#181818;stroke-width:0.5;"/><line style="stroke:#181818;stroke-width:0.5;" x1="586.27" x2="634.9634" y1="337.4969" y2="337.4969"/><text fill="#000000" font-family="sans-serif" font-size="14" font-weight="bold" lengthAdjust="spacing" textLength="23.6934" x="596.27" y="331.1951">ala</text><text fill="#000000" font-family="sans-serif" font-size="14" lengthAdjust="spacing" textLength="263.8193" x="596.27" y="357.492">Atualiza&#231;&#227;o de Legisla&#231;&#227;o e Al&#237;quotas</text></g><!--entity rd--><g class="entity" data-qualified-name="SST.rd" data-source-line="27" id="ent0024"><path d="M634.99,42.2 L664.9158,42.2 A3.75,3.75 0 0 1 667.4158,44.7 L674.4158,64.4969 L831.367,64.4969 A2.5,2.5 0 0 1 833.867,66.9969 L833.867,95.2938 A2.5,2.5 0 0 1 831.367,97.7938 L634.99,97.7938 A2.5,2.5 0 0 1 632.49,95.2938 L632.49,44.7 A2.5,2.5 0 0 1 634.99,42.2" fill="#F1F1F1" style="stroke:#181818;stroke-width:0.5;"/><line style="stroke:#181818;stroke-width:0.5;" x1="632.49" x2="674.4158" y1="64.4969" y2="64.4969"/><text fill="#000000" font-family="sans-serif" font-size="14" font-weight="bold" lengthAdjust="spacing" textLength="16.9258" x="642.49" y="58.1951">rd</text><text fill="#000000" font-family="sans-serif" font-size="14" lengthAdjust="spacing" textLength="171.377" x="642.49" y="84.492">Relat&#243;rios e Dashboards</text></g><!--entity idv--><g class="entity" data-qualified-name="SST.idv" data-source-line="28" id="ent0025"><path d="M598.94,224.2 L635.8863,224.2 A3.75,3.75 0 0 1 638.3863,226.7 L645.3863,246.4969 L867.4156,246.4969 A2.5,2.5 0 0 1 869.9156,248.9969 L869.9156,277.2938 A2.5,2.5 0 0 1 867.4156,279.7938 L598.94,279.7938 A2.5,2.5 0 0 1 596.44,277.2938 L596.44,226.7 A2.5,2.5 0 0 1 598.94,224.2" fill="#F1F1F1" style="stroke:#181818;stroke-width:0.5;"/><line style="stroke:#181818;stroke-width:0.5;" x1="596.44" x2="645.3863" y1="246.4969" y2="246.4969"/><text fill="#000000" font-family="sans-serif" font-size="14" font-weight="bold" lengthAdjust="spacing" textLength="23.9463" x="606.44" y="240.1951">idv</text><text fill="#000000" font-family="sans-serif" font-size="14" lengthAdjust="spacing" textLength="243.4756" x="606.44" y="266.492">Importa&#231;&#227;o de Dados e Valida&#231;&#245;es</text></g><!--entity cst--><g class="entity" data-qualified-name="SST.cst" data-source-line="29" id="ent0026"><path d="M613.63,133.2 L649.9542,133.2 A3.75,3.75 0 0 1 652.4542,135.7 L659.4542,155.4969 L852.7111,155.4969 A2.5,2.5 0 0 1 855.2111,157.9969 L855.2111,186.2938 A2.5,2.5 0 0 1 852.7111,188.7938 L613.63,188.7938 A2.5,2.5 0 0 1 611.13,186.2938 L611.13,135.7 A2.5,2.5 0 0 1 613.63,133.2" fill="#F1F1F1" style="stroke:#181818;stroke-width:0.5;"/><line style="stroke:#181818;stroke-width:0.5;" x1="611.13" x2="659.4542" y1="155.4969" y2="155.4969"/><text fill="#000000" font-family="sans-serif" font-size="14" font-weight="bold" lengthAdjust="spacing" textLength="23.3242" x="621.13" y="149.1951">cst</text><text fill="#000000" font-family="sans-serif" font-size="14" lengthAdjust="spacing" textLength="214.0811" x="621.13" y="175.492">C&#225;lculo e Simula&#231;&#227;o Tribut&#225;ria</text></g><!--entity us--><g class="entity" data-qualified-name="us" data-source-line="1" id="ent0002"><ellipse cx="32.6021" cy="571.35" fill="#F1F1F1" rx="8" ry="8" style="stroke:#181818;stroke-width:0.5;"/><path d="M32.6021,579.35 L32.6021,606.35 M19.6021,587.35 L45.6021,587.35 M32.6021,606.35 L19.6021,621.35 M32.6021,606.35 L45.6021,621.35" fill="none" style="stroke:#181818;stroke-width:0.5;"/><text fill="#000000" font-family="sans-serif" font-size="14" lengthAdjust="spacing" textLength="53.2041" x="6" y="635.8451">Usu&#225;rio</text></g><!--entity ges--><g class="entity" data-qualified-name="ges" data-source-line="2" id="ent0003"><ellipse cx="329.2632" cy="571.35" fill="#F1F1F1" rx="8" ry="8" style="stroke:#181818;stroke-width:0.5;"/><path d="M329.2632,579.35 L329.2632,606.35 M316.2632,587.35 L342.2632,587.35 M329.2632,606.35 L316.2632,621.35 M329.2632,606.35 L342.2632,621.35" fill="none" style="stroke:#181818;stroke-width:0.5;"/><text fill="#000000" font-family="sans-serif" font-size="14" lengthAdjust="spacing" textLength="46.5664" x="305.98" y="635.8451">Gestor</text></g><!--entity usc--><g class="entity" data-qualified-name="usc" data-source-line="3" id="ent0004"><ellipse cx="175.2718" cy="452.35" fill="#F1F1F1" rx="8" ry="8" style="stroke:#181818;stroke-width:0.5;"/><path d="M175.2718,460.35 L175.2718,487.35 M162.2718,468.35 L188.2718,468.35 M175.2718,487.35 L162.2718,502.35 M175.2718,487.35 L188.2718,502.35" fill="none" style="stroke:#181818;stroke-width:0.5;"/><text fill="#000000" font-family="sans-serif" font-size="14" lengthAdjust="spacing" textLength="112.1436" x="119.2" y="516.8451">Usu&#225;rio Comum</text></g><!--entity ger--><g class="entity" data-qualified-name="ger" data-source-line="4" id="ent0005"><ellipse cx="476.7233" cy="151.35" fill="#F1F1F1" rx="8" ry="8" style="stroke:#181818;stroke-width:0.5;"/><path d="M476.7233,159.35 L476.7233,186.35 M463.7233,167.35 L489.7233,167.35 M476.7233,186.35 L463.7233,201.35 M476.7233,186.35 L489.7233,201.35" fill="none" style="stroke:#181818;stroke-width:0.5;"/><text fill="#000000" font-family="sans-serif" font-size="14" lengthAdjust="spacing" textLength="56.8066" x="448.32" y="215.8451">Gerente</text></g><!--entity adm--><g class="entity" data-qualified-name="adm" data-source-line="5" id="ent0006"><ellipse cx="476.73" cy="586.35" fill="#F1F1F1" rx="8" ry="8" style="stroke:#181818;stroke-width:0.5;"/><path d="M476.73,594.35 L476.73,621.35 M463.73,602.35 L489.73,602.35 M476.73,621.35 L463.73,636.35 M476.73,621.35 L489.73,636.35" fill="none" style="stroke:#181818;stroke-width:0.5;"/><text fill="#000000" font-family="sans-serif" font-size="14" lengthAdjust="spacing" textLength="99.0801" x="427.19" y="650.8451">Administrador</text></g><!--entity ass--><g class="entity" data-qualified-name="ass" data-source-line="6" id="ent0007"><ellipse cx="329.2643" cy="333.35" fill="#F1F1F1" rx="8" ry="8" style="stroke:#181818;stroke-width:0.5;"/><path d="M329.2643,341.35 L329.2643,368.35 M316.2643,349.35 L342.2643,349.35 M329.2643,368.35 L316.2643,383.35 M329.2643,368.35 L342.2643,383.35" fill="none" style="stroke:#181818;stroke-width:0.5;"/><text fill="#000000" font-family="sans-serif" font-size="14" lengthAdjust="spacing" textLength="70.3486" x="294.09" y="397.8451">Associado</text></g><!--entity tec--><g class="entity" data-qualified-name="tec" data-source-line="7" id="ent0008"><ellipse cx="329.2689" cy="444.2" fill="#F1F1F1" rx="8" ry="8" style="stroke:#181818;stroke-width:0.5;"/><path d="M329.2689,452.2 L329.2689,479.2 M316.2689,460.2 L342.2689,460.2 M329.2689,479.2 L316.2689,494.2 M329.2689,479.2 L342.2689,494.2" fill="none" style="stroke:#181818;stroke-width:0.5;"/><text fill="#000000" font-family="sans-serif" font-size="14" lengthAdjust="spacing" textLength="75.8379" x="291.35" y="508.6951">T&#233;cnico de</text><text fill="#000000" font-family="sans-serif" font-size="14" lengthAdjust="spacing" textLength="53.4775" x="291.35" y="524.992">suporte</text></g><!--entity cl--><g class="entity" data-qualified-name="cl" data-source-line="8" id="ent0009"><ellipse cx="476.7218" cy="333.35" fill="#F1F1F1" rx="8" ry="8" style="stroke:#181818;stroke-width:0.5;"/><path d="M476.7218,341.35 L476.7218,368.35 M463.7218,349.35 L489.7218,349.35 M476.7218,368.35 L463.7218,383.35 M476.7218,368.35 L489.7218,383.35" fill="none" style="stroke:#181818;stroke-width:0.5;"/><text fill="#000000" font-family="sans-serif" font-size="14" lengthAdjust="spacing" textLength="49.1436" x="452.15" y="397.8451">Cliente</text></g><!--entity co--><g class="entity" data-qualified-name="co" data-source-line="9" id="ent0010"><ellipse cx="476.7251" cy="40.35" fill="#F1F1F1" rx="8" ry="8" style="stroke:#181818;stroke-width:0.5;"/><path d="M476.7251,48.35 L476.7251,75.35 M463.7251,56.35 L489.7251,56.35 M476.7251,75.35 L463.7251,90.35 M476.7251,75.35 L489.7251,90.35" fill="none" style="stroke:#181818;stroke-width:0.5;"/><text fill="#000000" font-family="sans-serif" font-size="14" lengthAdjust="spacing" textLength="64.4902" x="444.48" y="104.8451">Contador</text></g><!--reverse link us to ges--><g class="link" data-entity-1="ent0002" data-entity-2="ent0003" data-link-type="extension" data-source-line="11" id="lnk11"><path d="M77.49,601 C134.51,601 252.11,601 305.81,601" fill="none" id="us-backto-ges" style="stroke:#181818;stroke-width:1;"/><polygon fill="none" points="59.49,601,77.49,607,77.49,595,59.49,601" style="stroke:#181818;stroke-width:1;"/></g><!--reverse link ges to adm--><g class="link" data-entity-1="ent0003" data-entity-2="ent0006" data-link-type="extension" data-source-line="12" id="lnk12"><path d="M370.8956,605.1914 C390.6356,607.2214 401.99,608.4 426.99,610.98" fill="none" id="ges-backto-adm" style="stroke:#181818;stroke-width:1;"/><polygon fill="none" points="352.99,603.35,370.2818,611.1599,371.5094,599.2228,352.99,603.35" style="stroke:#181818;stroke-width:1;"/></g><!--reverse link ges to ger--><g class="link" data-entity-1="ent0003" data-entity-2="ent0005" data-link-type="extension" data-source-line="13" id="lnk13"><path d="M362.9027,556.2685 C368.1527,548.3685 363.35,554.62 367.19,546 C411.7,445.94 394.11,411.4 427.19,307 C436.64,277.17 449.43,244.18 459.51,219.45" fill="none" id="ges-backto-ger" style="stroke:#181818;stroke-width:1;"/><polygon fill="none" points="352.94,571.26,367.8999,559.5894,357.9055,552.9476,352.94,571.26" style="stroke:#181818;stroke-width:1;"/></g><!--reverse link us to usc--><g class="link" data-entity-1="ent0002" data-entity-2="ent0004" data-link-type="extension" data-source-line="14" id="lnk14"><path d="M73.1415,567.5537 C92.5015,551.1737 105.75,539.97 128.71,520.54" fill="none" id="us-backto-usc" style="stroke:#181818;stroke-width:1;"/><polygon fill="none" points="59.4,579.18,77.0169,572.1342,69.2661,562.9732,59.4,579.18" style="stroke:#181818;stroke-width:1;"/></g><!--reverse link usc to ass--><g class="link" data-entity-1="ent0004" data-entity-2="ent0007" data-link-type="extension" data-source-line="15" id="lnk15"><path d="M239.7942,432.2753 C262.1642,414.7653 273.88,405.59 294.06,389.79" fill="none" id="usc-backto-ass" style="stroke:#181818;stroke-width:1;"/><polygon fill="none" points="225.62,443.37,243.4924,437,236.0959,427.5505,225.62,443.37" style="stroke:#181818;stroke-width:1;"/></g><!--reverse link ass to co--><g class="link" data-entity-1="ent0007" data-entity-2="ent0010" data-link-type="extension" data-source-line="16" id="lnk16"><path d="M346.8929,307.2575 C362.0929,258.5575 386.64,190.41 427.19,125 C432.02,117.21 437.97,109.45 444.03,102.32" fill="none" id="ass-backto-co" style="stroke:#181818;stroke-width:1;"/><polygon fill="none" points="341.53,324.44,352.6204,309.0451,341.1654,305.4698,341.53,324.44" style="stroke:#181818;stroke-width:1;"/></g><!--reverse link ass to cl--><g class="link" data-entity-1="ent0007" data-entity-2="ent0009" data-link-type="extension" data-source-line="17" id="lnk17"><path d="M382.74,363 C409.62,363 428.26,363 451.95,363" fill="none" id="ass-backto-cl" style="stroke:#181818;stroke-width:1;"/><polygon fill="none" points="364.74,363,382.74,369,382.74,357,364.74,363" style="stroke:#181818;stroke-width:1;"/></g><!--reverse link usc to tec--><g class="link" data-entity-1="ent0004" data-entity-2="ent0008" data-link-type="extension" data-source-line="18" id="lnk18"><path d="M249.58,482 C269.44,482 273.34,482 291.27,482" fill="none" id="usc-backto-tec" style="stroke:#181818;stroke-width:1;"/><polygon fill="none" points="231.58,482,249.58,488,249.58,476,231.58,482" style="stroke:#181818;stroke-width:1;"/></g><!--link us to ai--><g class="link" data-entity-1="ent0002" data-entity-2="ent0020" data-link-type="association" data-source-line="32" id="lnk27"><path d="M59.55,616.24 C138.07,660.16 376.9,777.33 526.27,672 C565.21,644.54 527.28,603.36 562.27,571 C575.95,558.34 592.76,549.11 610.43,542.38" fill="none" id="us-ai" style="stroke:#181818;stroke-width:1;"/></g><!--link adm to ai--><g class="link" data-entity-1="ent0006" data-entity-2="ent0020" data-link-type="association" data-source-line="33" id="lnk28"><path d="M526.46,587.67 C537.97,581.66 550.36,575.71 562.27,571 C578.75,564.48 596.48,558.55 614.06,553.28" fill="none" id="adm-ai" style="stroke:#181818;stroke-width:1;"/></g><!--link ges to ai--><g class="link" data-entity-1="ent0003" data-entity-2="ent0020" data-link-type="association" data-source-line="34" id="lnk29"><path d="M352.72,589.32 C371.96,579.85 400.68,566.97 427.19,560 C486.33,544.44 553.73,535.8 610.11,531" fill="none" id="ges-ai" style="stroke:#181818;stroke-width:1;"/></g><!--link us to ca--><g class="link" data-entity-1="ent0002" data-entity-2="ent0021" data-link-type="association" data-source-line="36" id="lnk30"><path d="M46.7,639.47 C59.69,670.92 82.96,713.31 119.2,733 C278.17,819.38 351.35,779.22 526.27,733 C591.26,715.83 657.22,672.87 696.41,644.06" fill="none" id="us-ca" style="stroke:#181818;stroke-width:1;"/></g><!--link adm to ca--><g class="link" data-entity-1="ent0006" data-entity-2="ent0021" data-link-type="association" data-source-line="37" id="lnk31"><path d="M526.48,616 C561.48,616 609.47,616 650.29,616" fill="none" id="adm-ca" style="stroke:#181818;stroke-width:1;"/></g><!--link co to cst--><g class="link" data-entity-1="ent0010" data-entity-2="ent0026" data-link-type="association" data-source-line="39" id="lnk32"><path d="M509.43,89.06 C524.96,97.83 544.18,107.84 562.27,115 C578.75,121.52 596.48,127.45 614.06,132.72" fill="none" id="co-cst" style="stroke:#181818;stroke-width:1;"/></g><!--link ger to cst--><g class="link" data-entity-1="ent0005" data-entity-2="ent0026" data-link-type="association" data-source-line="40" id="lnk33"><path d="M505.44,178.82 C531.2,176.8 571.43,173.64 610.9,170.53" fill="none" id="ger-cst" style="stroke:#181818;stroke-width:1;"/></g><!--link co to rd--><g class="link" data-entity-1="ent0010" data-entity-2="ent0024" data-link-type="association" data-source-line="42" id="lnk34"><path d="M509.44,70 C540.15,70 588.35,70 632.07,70" fill="none" id="co-rd" style="stroke:#181818;stroke-width:1;"/></g><!--link ger to rd--><g class="link" data-entity-1="ent0005" data-entity-2="ent0024" data-link-type="association" data-source-line="43" id="lnk35"><path d="M505.57,155.11 C521.22,141.76 541.69,126.19 562.27,116 C584.04,105.22 608.67,96.69 632.29,90.07" fill="none" id="ger-rd" style="stroke:#181818;stroke-width:1;"/></g><!--link us to gu--><g class="link" data-entity-1="ent0002" data-entity-2="ent0022" data-link-type="association" data-source-line="45" id="lnk36"><path d="M45.93,562.58 C59.45,524.77 84.02,466.9 119.2,426 C179.86,355.49 202.56,334.7 291.35,307 C391.02,275.9 438.72,250.11 526.27,307 C559.3,328.47 532.35,362.37 562.27,388 C587.56,409.68 622.12,421.23 653.46,427.36" fill="none" id="us-gu" style="stroke:#181818;stroke-width:1;"/></g><!--link adm to gu--><g class="link" data-entity-1="ent0006" data-entity-2="ent0022" data-link-type="association" data-source-line="46" id="lnk37"><path d="M492.27,577.54 C505.84,546.74 529.03,504.72 562.27,480 C588.63,460.4 622.81,449.14 653.6,442.69" fill="none" id="adm-gu" style="stroke:#181818;stroke-width:1;"/></g><!--link tec to gu--><g class="link" data-entity-1="ent0008" data-entity-2="ent0022" data-link-type="association" data-source-line="47" id="lnk38"><path d="M367.36,477.57 C432.07,469.84 566.93,453.74 653.31,443.42" fill="none" id="tec-gu" style="stroke:#181818;stroke-width:1;"/></g><!--link ger to gu--><g class="link" data-entity-1="ent0005" data-entity-2="ent0022" data-link-type="association" data-source-line="48" id="lnk39"><path d="M505.61,213.12 C513.19,223.13 520.81,234.56 526.27,246 C554.28,304.77 516.6,341.59 562.27,388 C586.06,412.18 621.16,424.04 653.29,429.72" fill="none" id="ger-gu" style="stroke:#181818;stroke-width:1;"/></g><!--link co to idv--><g class="link" data-entity-1="ent0010" data-entity-2="ent0025" data-link-type="association" data-source-line="50" id="lnk40"><path d="M509.23,102.44 C515.31,109.56 521.31,117.28 526.27,125 C547.55,158.15 532.35,180.37 562.27,206 C572.36,214.65 583.93,221.69 596.18,227.41" fill="none" id="co-idv" style="stroke:#181818;stroke-width:1;"/></g><!--link ger to idv--><g class="link" data-entity-1="ent0005" data-entity-2="ent0025" data-link-type="association" data-source-line="51" id="lnk41"><path d="M505.47,189.38 C521.95,194.32 543.27,200.62 562.27,206 C583,211.87 605.19,218 626.48,223.79" fill="none" id="ger-idv" style="stroke:#181818;stroke-width:1;"/></g><?plantuml-src LL8xRXin4ErvYe4QLxw0a4QGWC10gaXEbOOYnoiYtAKy95taSnWZHP0YLU0JxCKyGt8fgI3mXdppvlEuVenvVYKNrg0ZvAZM7p6cG2KSaEE50Dimvh7HZF08fuIDI6gziQERN4oaRSlNTkJh68DnV5Ul8aiUvhzcSYQ0nQzJpET0JISX2s-zwyB6Snocr2LDK2f7-F3p_hwqnwS6Kgi7qi_2acRvD1QNvrC3rhfWVo595yhZKu8KWDnmIc0TeKakJ4e9qDFW4VRx0_nG06Tjlka1ONNPmFnd_Xq0uM5w8iqBfPmowLNPWBjEaU4ei9X5s1ZaNHMIqTSaiKJqcBEuKLX3lgcUilRkUwlDt4yukEXxBni__tlE8UbO-_0tDJwZrsd-pzAHkJiTJyUWoLOksMlgmoYENUhis1r9-iBbhLo_OKrpzkLcrldLc-obbxqRyzBPWTmn9vcgBiZ4f3ZjZcT5YkB166psR3QmcI0koWhPy8x5-8exfsomSHXpmFzDCAjB0Yr1Vob3jWV6NQbikIaLpF-ZuyPdt7NgrEr1Wb_l?></g></svg>