<?plantuml 1.2026.1beta5?><svg xmlns="http://www.w3.org/2000/svg" xmlns:xlink="http://www.w3.org/1999/xlink" contentStyleType="text/css" data-diagram-type="DESCRIPTION" height="436px" preserveAspectRatio="none" style="width:1400px;height:436px;background:#FFFFFF;" version="1.1" viewBox="0 0 1400 436" width="1400px" zoomAndPan="magnify"><defs/><g><!--cluster Relat?rios e Dashboards--><g class="cluster" data-qualified-name="Relat.rios e Dashboards" data-source-line="22" id="ent0019"><path d="M578.77,77.65 L773.2134,77.65 A3.75,3.75 0 0 1 775.7134,80.15 L782.7134,99.9469 L1390.93,99.9469 A2.5,2.5 0 0 1 1393.43,102.4469 L1393.43,423.15 A2.5,2.5 0 0 1 1390.93,425.65 L578.77,425.65 A2.5,2.5 0 0 1 576.27,423.15 L576.27,80.15 A2.5,2.5 0 0 1 578.77,77.65" fill="none" style="stroke:#000000;stroke-width:1.5;"/><line style="stroke:#000000;stroke-width:1.5;" x1="576.27" x2="782.7134" y1="99.9469" y2="99.9469"/><text fill="#000000" font-family="sans-serif" font-size="14" font-weight="bold" lengthAdjust="spacing" textLength="193.4434" x="580.27" y="92.6451">Relat&#243;rios e Dashboards</text></g><!--entity hist--><g class="entity" data-qualified-name="Relat.rios e Dashboards.hist" data-source-line="25" id="ent0020"><ellipse cx="684.7147" cy="190.6538" fill="#F1F1F1" rx="92.4447" ry="24.8838" style="stroke:#181818;stroke-width:0.5;"/><text fill="#000000" font-family="sans-serif" font-size="14" lengthAdjust="spacing" textLength="133.2188" x="618.1053" y="188.8454">Consultar Hist&#243;rico</text><text fill="#000000" font-family="sans-serif" font-size="14" lengthAdjust="spacing" textLength="101.876" x="633.7767" y="205.1423">de Simula&#231;&#245;es</text></g><!--entity comp--><g class="entity" data-qualified-name="Relat.rios e Dashboards.comp" data-source-line="28" id="ent0021"><ellipse cx="1009.8516" cy="361.6481" fill="#F1F1F1" rx="75.9916" ry="25.2181" style="stroke:#181818;stroke-width:0.5;"/><text fill="#000000" font-family="sans-serif" font-size="14" lengthAdjust="spacing" textLength="107.0781" x="956.3125" y="359.3435">Gerar Relat&#243;rio</text><text fill="#000000" font-family="sans-serif" font-size="14" lengthAdjust="spacing" textLength="90.0088" x="964.8472" y="375.6403">Comparativo</text></g><!--entity exp--><g class="entity" data-qualified-name="Relat.rios e Dashboards.exp" data-source-line="31" id="ent0022"><ellipse cx="1009.8534" cy="237.6467" fill="#F1F1F1" rx="84.7834" ry="19.3567" style="stroke:#181818;stroke-width:0.5;"/><text fill="#000000" font-family="sans-serif" font-size="14" lengthAdjust="spacing" textLength="141.8252" x="938.9408" y="242.2951">Exportar Resultados</text></g><g class="entity" data-qualified-name="Relat.rios e Dashboards.n1" data-source-line="47" id="ent0030"><path d="M902.15,112.38 L902.15,182.9113 L1117.547,182.9113 L1117.547,122.38 L1107.547,112.38 L902.15,112.38" fill="#FEFFDD" style="stroke:#181818;stroke-width:0.5;"/><path d="M1107.547,112.38 L1107.547,122.38 L1117.547,122.38 L1107.547,112.38" fill="#FEFFDD" style="stroke:#181818;stroke-width:1;"/><text fill="#000000" font-family="sans-serif" font-size="13" lengthAdjust="spacing" textLength="75.1943" x="908.15" y="129.4469">RF-REL-001</text><text fill="#000000" font-family="sans-serif" font-size="13" lengthAdjust="spacing" textLength="194.397" x="908.15" y="144.5797">Acesso ao hist&#243;rico completo,</text><text fill="#000000" font-family="sans-serif" font-size="13" lengthAdjust="spacing" textLength="148.0337" x="908.15" y="159.7125">filtros por cliente, data</text><text fill="#000000" font-family="sans-serif" font-size="13" lengthAdjust="spacing" textLength="122.6494" x="908.15" y="174.8453">e regime tribut&#225;rio</text></g><g class="entity" data-qualified-name="Relat.rios e Dashboards.n2" data-source-line="50" id="ent0032"><path d="M1178.55,339.38 L1178.55,365.82 L1085.34,365.29 L1178.55,373.82 L1178.55,409.9113 A0,0 0 0 0 1178.55,409.9113 L1377.424,409.9113 A0,0 0 0 0 1377.424,409.9113 L1377.424,349.38 L1367.424,339.38 L1178.55,339.38 A0,0 0 0 0 1178.55,339.38" fill="#FEFFDD" style="stroke:#181818;stroke-width:0.5;"/><path d="M1367.424,339.38 L1367.424,349.38 L1377.424,349.38 L1367.424,339.38" fill="#FEFFDD" style="stroke:#181818;stroke-width:0.5;"/><text fill="#000000" font-family="sans-serif" font-size="13" lengthAdjust="spacing" textLength="75.1943" x="1184.55" y="356.4469">RF-REL-002</text><text fill="#000000" font-family="sans-serif" font-size="13" lengthAdjust="spacing" textLength="177.874" x="1184.55" y="371.5797">Compara&#231;&#227;o entre regimes</text><text fill="#000000" font-family="sans-serif" font-size="13" lengthAdjust="spacing" textLength="149.6841" x="1184.55" y="386.7125">com gr&#225;ficos de barras</text><text fill="#000000" font-family="sans-serif" font-size="13" lengthAdjust="spacing" textLength="170.4282" x="1184.55" y="401.8453">e linha ao longo do tempo</text></g><g class="entity" data-qualified-name="Relat.rios e Dashboards.n3" data-source-line="53" id="ent0034"><path d="M1184.76,233.38 L1184.76,295.9113 L1063.12,343.39 L1184.76,303.9113 L1184.76,303.9113 A0,0 0 0 0 1184.76,303.9113 L1371.2117,303.9113 A0,0 0 0 0 1371.2117,303.9113 L1371.2117,243.38 L1361.2117,233.38 L1184.76,233.38 A0,0 0 0 0 1184.76,233.38" fill="#FEFFDD" style="stroke:#181818;stroke-width:0.5;"/><path d="M1361.2117,233.38 L1361.2117,243.38 L1371.2117,243.38 L1361.2117,233.38" fill="#FEFFDD" style="stroke:#181818;stroke-width:0.5;"/><text fill="#000000" font-family="sans-serif" font-size="13" lengthAdjust="spacing" textLength="75.1943" x="1190.76" y="250.4469">RF-REL-003</text><text fill="#000000" font-family="sans-serif" font-size="13" lengthAdjust="spacing" textLength="140.6196" x="1190.76" y="265.5797">Gera&#231;&#227;o de relat&#243;rios</text><text fill="#000000" font-family="sans-serif" font-size="13" lengthAdjust="spacing" textLength="165.4517" x="1190.76" y="280.7125">personalizados com logo,</text><text fill="#000000" font-family="sans-serif" font-size="13" lengthAdjust="spacing" textLength="154.7178" x="1190.76" y="295.8453">observa&#231;&#245;es e m&#233;tricas</text></g><g class="entity" data-qualified-name="Relat.rios e Dashboards.n4" data-source-line="56" id="ent0036"><path d="M1190.76,112.82 L1190.76,178.37 L1061.85,221.94 L1190.76,186.37 L1190.76,198.4841 A0,0 0 0 0 1190.76,198.4841 L1365.2273,198.4841 A0,0 0 0 0 1365.2273,198.4841 L1365.2273,122.82 L1355.2273,112.82 L1190.76,112.82 A0,0 0 0 0 1190.76,112.82" fill="#FEFFDD" style="stroke:#181818;stroke-width:0.5;"/><path d="M1355.2273,112.82 L1355.2273,122.82 L1365.2273,122.82 L1355.2273,112.82" fill="#FEFFDD" style="stroke:#181818;stroke-width:0.5;"/><text fill="#000000" font-family="sans-serif" font-size="13" lengthAdjust="spacing" textLength="75.1943" x="1196.76" y="129.8869">RF-REL-004</text><text fill="#000000" font-family="sans-serif" font-size="13" lengthAdjust="spacing" textLength="131.9741" x="1196.76" y="145.0197">Exporta&#231;&#227;o em PDF,</text><text fill="#000000" font-family="sans-serif" font-size="13" lengthAdjust="spacing" textLength="146.6182" x="1196.76" y="160.1525">Excel detalhado e CSV</text><text fill="#000000" font-family="sans-serif" font-size="13" lengthAdjust="spacing" textLength="153.4673" x="1196.76" y="175.2853">para compartilhamento</text><text fill="#000000" font-family="sans-serif" font-size="13" lengthAdjust="spacing" textLength="89.9019" x="1196.76" y="190.4181">ou integra&#231;&#227;o</text></g><!--entity us--><g class="entity" data-qualified-name="us" data-source-line="1" id="ent0002"><ellipse cx="32.6021" cy="181" fill="#F1F1F1" rx="8" ry="8" style="stroke:#181818;stroke-width:0.5;"/><path d="M32.6021,189 L32.6021,216 M19.6021,197 L45.6021,197 M32.6021,216 L19.6021,231 M32.6021,216 L45.6021,231" fill="none" style="stroke:#181818;stroke-width:0.5;"/><text fill="#000000" font-family="sans-serif" font-size="14" lengthAdjust="spacing" textLength="53.2041" x="6" y="245.4951">Usu&#225;rio</text></g><!--entity ges--><g class="entity" data-qualified-name="ges" data-source-line="2" id="ent0003"><ellipse cx="331.2632" cy="125" fill="#F1F1F1" rx="8" ry="8" style="stroke:#181818;stroke-width:0.5;"/><path d="M331.2632,133 L331.2632,160 M318.2632,141 L344.2632,141 M331.2632,160 L318.2632,175 M331.2632,160 L344.2632,175" fill="none" style="stroke:#181818;stroke-width:0.5;"/><text fill="#000000" font-family="sans-serif" font-size="14" lengthAdjust="spacing" textLength="46.5664" x="307.98" y="189.4951">Gestor</text></g><!--entity usc--><g class="entity" data-qualified-name="usc" data-source-line="3" id="ent0004"><ellipse cx="176.2718" cy="236" fill="#F1F1F1" rx="8" ry="8" style="stroke:#181818;stroke-width:0.5;"/><path d="M176.2718,244 L176.2718,271 M163.2718,252 L189.2718,252 M176.2718,271 L163.2718,286 M176.2718,271 L189.2718,286" fill="none" style="stroke:#181818;stroke-width:0.5;"/><text fill="#000000" font-family="sans-serif" font-size="14" lengthAdjust="spacing" textLength="112.1436" x="120.2" y="300.4951">Usu&#225;rio Comum</text></g><!--entity ger--><g class="entity" data-qualified-name="ger" data-source-line="4" id="ent0005"><ellipse cx="479.7233" cy="14" fill="#F1F1F1" rx="8" ry="8" style="stroke:#181818;stroke-width:0.5;"/><path d="M479.7233,22 L479.7233,49 M466.7233,30 L492.7233,30 M479.7233,49 L466.7233,64 M479.7233,49 L492.7233,64" fill="none" style="stroke:#181818;stroke-width:0.5;"/><text fill="#000000" font-family="sans-serif" font-size="14" lengthAdjust="spacing" textLength="56.8066" x="451.32" y="78.4951">Gerente</text></g><!--entity adm--><g class="entity" data-qualified-name="adm" data-source-line="5" id="ent0006"><ellipse cx="479.73" cy="125" fill="#F1F1F1" rx="8" ry="8" style="stroke:#181818;stroke-width:0.5;"/><path d="M479.73,133 L479.73,160 M466.73,141 L492.73,141 M479.73,160 L466.73,175 M479.73,160 L492.73,175" fill="none" style="stroke:#181818;stroke-width:0.5;"/><text fill="#000000" font-family="sans-serif" font-size="14" lengthAdjust="spacing" textLength="99.0801" x="430.19" y="189.4951">Administrador</text></g><!--entity ass--><g class="entity" data-qualified-name="ass" data-source-line="6" id="ent0007"><ellipse cx="331.2643" cy="236" fill="#F1F1F1" rx="8" ry="8" style="stroke:#181818;stroke-width:0.5;"/><path d="M331.2643,244 L331.2643,271 M318.2643,252 L344.2643,252 M331.2643,271 L318.2643,286 M331.2643,271 L344.2643,286" fill="none" style="stroke:#181818;stroke-width:0.5;"/><text fill="#000000" font-family="sans-serif" font-size="14" lengthAdjust="spacing" textLength="70.3486" x="296.09" y="300.4951">Associado</text></g><!--entity tec--><g class="entity" data-qualified-name="tec" data-source-line="7" id="ent0008"><ellipse cx="331.2689" cy="346.85" fill="#F1F1F1" rx="8" ry="8" style="stroke:#181818;stroke-width:0.5;"/><path d="M331.2689,354.85 L331.2689,381.85 M318.2689,362.85 L344.2689,362.85 M331.2689,381.85 L318.2689,396.85 M331.2689,381.85 L344.2689,396.85" fill="none" style="stroke:#181818;stroke-width:0.5;"/><text fill="#000000" font-family="sans-serif" font-size="14" lengthAdjust="spacing" textLength="75.8379" x="293.35" y="411.3451">T&#233;cnico de</text><text fill="#000000" font-family="sans-serif" font-size="14" lengthAdjust="spacing" textLength="53.4775" x="293.35" y="427.642">suporte</text></g><!--entity cl--><g class="entity" data-qualified-name="cl" data-source-line="8" id="ent0009"><ellipse cx="479.7218" cy="236" fill="#F1F1F1" rx="8" ry="8" style="stroke:#181818;stroke-width:0.5;"/><path d="M479.7218,244 L479.7218,271 M466.7218,252 L492.7218,252 M479.7218,271 L466.7218,286 M479.7218,271 L492.7218,286" fill="none" style="stroke:#181818;stroke-width:0.5;"/><text fill="#000000" font-family="sans-serif" font-size="14" lengthAdjust="spacing" textLength="49.1436" x="455.15" y="300.4951">Cliente</text></g><!--entity co--><g class="entity" data-qualified-name="co" data-source-line="9" id="ent0010"><ellipse cx="479.7251" cy="347" fill="#F1F1F1" rx="8" ry="8" style="stroke:#181818;stroke-width:0.5;"/><path d="M479.7251,355 L479.7251,382 M466.7251,363 L492.7251,363 M479.7251,382 L466.7251,397 M479.7251,382 L492.7251,397" fill="none" style="stroke:#181818;stroke-width:0.5;"/><text fill="#000000" font-family="sans-serif" font-size="14" lengthAdjust="spacing" textLength="64.4902" x="447.48" y="411.4951">Contador</text></g><!--reverse link us to ges--><g class="link" data-entity-1="ent0002" data-entity-2="ent0003" data-link-type="extension" data-source-line="11" id="lnk11"><path d="M77.3574,202.3897 C134.7574,191.5497 253.59,169.12 307.66,158.92" fill="none" id="us-backto-ges" style="stroke:#181818;stroke-width:1;"/><polygon fill="none" points="59.67,205.73,78.4708,208.2855,76.2439,196.494,59.67,205.73" style="stroke:#181818;stroke-width:1;"/></g><!--reverse link ges to adm--><g class="link" data-entity-1="ent0003" data-entity-2="ent0006" data-link-type="extension" data-source-line="12" id="lnk12"><path d="M372.83,154.65 C392.73,154.65 404.42,154.65 429.75,154.65" fill="none" id="ges-backto-adm" style="stroke:#181818;stroke-width:1;"/><polygon fill="none" points="354.83,154.65,372.83,160.65,372.83,148.65,354.83,154.65" style="stroke:#181818;stroke-width:1;"/></g><!--reverse link ges to ger--><g class="link" data-entity-1="ent0003" data-entity-2="ent0005" data-link-type="extension" data-source-line="13" id="lnk13"><path d="M369.1765,126.6791 C395.0165,107.0991 423.01,85.88 450.88,64.76" fill="none" id="ges-backto-ger" style="stroke:#181818;stroke-width:1;"/><polygon fill="none" points="354.83,137.55,372.8002,131.4612,365.5529,121.8969,354.83,137.55" style="stroke:#181818;stroke-width:1;"/></g><!--reverse link us to usc--><g class="link" data-entity-1="ent0002" data-entity-2="ent0004" data-link-type="extension" data-source-line="14" id="lnk14"><path d="M76.3704,227.253 C93.2204,233.793 99.05,236.06 119.81,244.12" fill="none" id="us-backto-usc" style="stroke:#181818;stroke-width:1;"/><polygon fill="none" points="59.59,220.74,74.1994,232.8464,78.5414,221.6595,59.59,220.74" style="stroke:#181818;stroke-width:1;"/></g><!--reverse link usc to ass--><g class="link" data-entity-1="ent0004" data-entity-2="ent0007" data-link-type="extension" data-source-line="15" id="lnk15"><path d="M250.51,265.65 C271.74,265.65 277.33,265.65 296.03,265.65" fill="none" id="usc-backto-ass" style="stroke:#181818;stroke-width:1;"/><polygon fill="none" points="232.51,265.65,250.51,271.65,250.51,259.65,232.51,265.65" style="stroke:#181818;stroke-width:1;"/></g><!--reverse link ass to co--><g class="link" data-entity-1="ent0007" data-entity-2="ent0010" data-link-type="extension" data-source-line="16" id="lnk16"><path d="M380.944,302.5443 C405.294,321.0043 423.39,334.71 447.1,352.68" fill="none" id="ass-backto-co" style="stroke:#181818;stroke-width:1;"/><polygon fill="none" points="366.6,291.67,377.3192,307.3256,384.5687,297.763,366.6,291.67" style="stroke:#181818;stroke-width:1;"/></g><!--reverse link ass to cl--><g class="link" data-entity-1="ent0007" data-entity-2="ent0009" data-link-type="extension" data-source-line="17" id="lnk17"><path d="M384.6,265.65 C411.66,265.65 430.69,265.65 454.66,265.65" fill="none" id="ass-backto-cl" style="stroke:#181818;stroke-width:1;"/><polygon fill="none" points="366.6,265.65,384.6,271.65,384.6,259.65,366.6,265.65" style="stroke:#181818;stroke-width:1;"/></g><!--reverse link usc to tec--><g class="link" data-entity-1="ent0004" data-entity-2="ent0008" data-link-type="extension" data-source-line="18" id="lnk18"><path d="M241.1587,315.3405 C262.6187,332.0305 273.1,340.19 292.96,355.63" fill="none" id="usc-backto-tec" style="stroke:#181818;stroke-width:1;"/><polygon fill="none" points="226.95,304.29,237.4752,320.0767,244.8422,310.6042,226.95,304.29" style="stroke:#181818;stroke-width:1;"/></g><!--link co to hist--><g class="link" data-entity-1="ent0010" data-entity-2="ent0020" data-link-type="association" data-source-line="34" id="lnk23"><path d="M512.35,341.9 C518.1,335.28 523.96,328.33 529.27,321.65 C543.54,303.69 543.05,295.88 559.27,279.65 C585.08,253.82 619.07,230.06 645,213.6" fill="none" id="co-hist" style="stroke:#181818;stroke-width:1;"/></g><!--link ger to hist--><g class="link" data-entity-1="ent0005" data-entity-2="ent0020" data-link-type="association" data-source-line="35" id="lnk24"><path d="M508.49,74.51 C515.37,82.32 522.65,90.73 529.27,98.65 C543.06,115.17 542.21,123.53 559.27,136.65 C578.4,151.37 602.16,162.96 623.77,171.57" fill="none" id="ger-hist" style="stroke:#181818;stroke-width:1;"/></g><!--link co to comp--><g class="link" data-entity-1="ent0010" data-entity-2="ent0021" data-link-type="association" data-source-line="37" id="lnk25"><path d="M512.18,375.76 C594.23,373.43 816.53,367.11 933.92,363.78" fill="none" id="co-comp" style="stroke:#181818;stroke-width:1;"/></g><!--link co to exp--><g class="link" data-entity-1="ent0010" data-entity-2="ent0022" data-link-type="association" data-source-line="39" id="lnk26"><path d="M512.3,363.54 C528.75,357.11 549.34,349.68 568.27,344.65 C701.39,309.25 739.08,319.24 872.15,283.65 C903.24,275.34 937.56,263.78 964.04,254.33" fill="none" id="co-exp" style="stroke:#181818;stroke-width:1;"/></g><!--link ger to exp--><g class="link" data-entity-1="ent0005" data-entity-2="ent0022" data-link-type="association" data-source-line="40" id="lnk27"><path d="M508.46,51.66 C573.48,70.86 740.23,122.46 872.15,183.65 C886.06,190.1 888.19,194.34 902.15,200.65 C919.84,208.65 939.8,215.99 957.64,221.99" fill="none" id="ger-exp" style="stroke:#181818;stroke-width:1;"/></g><!--link hist to comp--><g class="link" data-entity-1="ent0020" data-entity-2="ent0021" data-link-type="dependency" data-source-line="43" id="lnk28"><path d="M727.96,213.01 C790.4,246.05 901.2669,304.7134 962.8269,337.2934" fill="none" id="hist-to-comp" style="stroke:#181818;stroke-width:1;stroke-dasharray:7,7;"/><polygon fill="#181818" points="968.13,340.1,962.0464,332.3547,963.7107,337.7612,958.3043,339.4255,968.13,340.1" style="stroke:#181818;stroke-width:1;"/><text fill="#000000" font-family="sans-serif" font-size="13" lengthAdjust="spacing" textLength="63.0068" x="808.15" y="252.7169">&#171;include&#187;</text></g><!--reverse link hist to exp--><g class="link" data-entity-1="ent0020" data-entity-2="ent0022" data-link-type="dependency" data-source-line="44" id="lnk29"><path d="M772.7775,203.3139 C825.2175,210.9439 886.9,219.91 937.33,227.25" fill="none" id="hist-backto-exp" style="stroke:#181818;stroke-width:1;stroke-dasharray:7,7;"/><polygon fill="#181818" points="766.84,202.45,775.1703,207.7042,771.7879,203.1699,776.3222,199.7875,766.84,202.45" style="stroke:#181818;stroke-width:1;"/><text fill="#000000" font-family="sans-serif" font-size="13" lengthAdjust="spacing" textLength="61.1851" x="809.15" y="204.7169">&#171;extend&#187;</text></g><!--link hist to n1--><g class="link" data-entity-1="ent0020" data-entity-2="ent0030" data-link-type="association" data-source-line="48" id="lnk31"><path d="M756.75,174.61 C773.24,171.28 790.76,168.06 807.15,165.65 C837.76,161.15 871.16,157.62 901.82,154.92" fill="none" id="hist-n1" style="stroke:#181818;stroke-width:1;stroke-dasharray:7,7;"/></g><?plantuml-src RLFBRjim4BphAnQvj05i8x5zCWm3WPEqXnuAf-b95vfYPA8KwP9K4FJnCK4FHSv5lq0_rbbIbWqq1mBQvN9cTdQrk0zjz-orMv08r8PYyKw5w7mAQuNuK41hrxHDNoQvpYiRLL_eYyLLrMYhG_IYwj-Bga4w12SrSZaL0FcfUv5MIqULAcrezyxtE541U6tq02mDOcVZ02bTKRI1bZ_6uoGF9mVCDGIivr35Od7wAj3Zv01OnszpB68LXL4FaQ8Zh-jTf4fx9QDsjYZsGduHjQApZJ8YTdzWJI15roBijaxuAfpHzw8WUaFtwujB6jFcThov-J2-kBX4zYsw2Qs9mjDxUCNFfIjjfUXEDwqHtU_khmhdtEeEzmFGz1HeEZf-pnWKim3WKL1fCQozy2BgHtUUVMls0zZi56pE03TFF8I4aTHLBcjGJ_qhaQUOvI63uS6f997ORXh2uV90cID6EbOEk1wQ9NmL3MREHjhe5KaH7BCm84qcguH52rekjPMchTHgTRXTJYQCHkbMFKLbArmcREiYMe2rNdrjTT0nOIBBmnk6KjehgT0T2PSGyqWIer7HZKhxe4tqq0QBi2TfEKTKYIXAozYrRXH5hxTjJ3_A6HjdBu_oEVYVU3eC2QR-Sdtd6IwK5lnK--xv0M9I4rlXlGXCQRJT2PPhdAtn4pbiRBFlUQV9SRZ5lDDNU6UbvNN9fCcSOOrBkrS-O1X6V-CLO22Gr6o2smRb7_i5mButtGjwng0oxUoKTlOAxRoq_PBrxJRqyVfsn5cf38H4ONOW1VJwxZEKm9Y4A7pKk4dx0HajQVXVzmraSbvXtW7cdXS__m40?></g></svg>