<?plantuml 1.2026.1beta5?><svg xmlns="http://www.w3.org/2000/svg" xmlns:xlink="http://www.w3.org/1999/xlink" contentStyleType="text/css" data-diagram-type="DESCRIPTION" height="593px" preserveAspectRatio="none" style="width:867px;height:593px;background:#FFFFFF;" version="1.1" viewBox="0 0 867 593" width="867px" zoomAndPan="magnify"><defs/><g><!--cluster Gest?o de usu?rios--><g class="cluster" data-qualified-name="Gest.o de usu.rios" data-source-line="22" id="ent0019"><path d="M436.93,101.65 L589.64,101.65 A3.75,3.75 0 0 1 592.14,104.15 L599.14,123.9469 L857.64,123.9469 A2.5,2.5 0 0 1 860.14,126.4469 L860.14,372.15 A2.5,2.5 0 0 1 857.64,374.65 L436.93,374.65 A2.5,2.5 0 0 1 434.43,372.15 L434.43,104.15 A2.5,2.5 0 0 1 436.93,101.65" fill="none" style="stroke:#000000;stroke-width:1.5;"/><line style="stroke:#000000;stroke-width:1.5;" x1="434.43" x2="599.14" y1="123.9469" y2="123.9469"/><text fill="#000000" font-family="sans-serif" font-size="14" font-weight="bold" lengthAdjust="spacing" textLength="151.71" x="438.43" y="116.6451">Gest&#227;o de usu&#225;rios</text></g><!--entity mantUs--><g class="entity" data-qualified-name="Gest.o de usu.rios.mantUs" data-source-line="24" id="ent0020"><ellipse cx="540.4293" cy="152.6539" fill="#F1F1F1" rx="69.7193" ry="16.3439" style="stroke:#181818;stroke-width:0.5;"/><text fill="#000000" font-family="sans-serif" font-size="14" lengthAdjust="spacing" textLength="105.6699" x="487.5943" y="157.3023">Manter usu&#225;rio</text></g><!--entity mantAss--><g class="entity" data-qualified-name="Gest.o de usu.rios.mantAss" data-source-line="26" id="ent0021"><ellipse cx="767.2905" cy="154.6501" fill="#F1F1F1" rx="76.8505" ry="17.7701" style="stroke:#181818;stroke-width:0.5;"/><text fill="#000000" font-family="sans-serif" font-size="14" lengthAdjust="spacing" textLength="123.1904" x="705.6953" y="159.2985">Manter associado</text></g><!--entity gerenPf--><g class="entity" data-qualified-name="Gest.o de usu.rios.gerenPf" data-source-line="28" id="ent0022"><ellipse cx="540.4314" cy="220.6523" fill="#F1F1F1" rx="71.0614" ry="16.6123" style="stroke:#181818;stroke-width:0.5;"/><text fill="#000000" font-family="sans-serif" font-size="14" lengthAdjust="spacing" textLength="109.04" x="485.9114" y="225.3007">Gerenciar perfil</text></g><!--entity visInfo--><g class="entity" data-qualified-name="Gest.o de usu.rios.visInfo" data-source-line="30" id="ent0023"><ellipse cx="540.4347" cy="315.653" fill="#F1F1F1" rx="90.0047" ry="43.023" style="stroke:#181818;stroke-width:0.5;"/><text fill="#000000" font-family="sans-serif" font-size="14" lengthAdjust="spacing" textLength="67.6758" x="506.5968" y="291.5778">Visualizar</text><text fill="#000000" font-family="sans-serif" font-size="14" lengthAdjust="spacing" textLength="108.3496" x="488.485" y="307.8747">informa&#231;&#245;es de</text><text fill="#000000" font-family="sans-serif" font-size="14" lengthAdjust="spacing" textLength="141.709" x="469.5802" y="324.1716">associado e gerente</text><text fill="#000000" font-family="sans-serif" font-size="14" lengthAdjust="spacing" textLength="122.9785" x="478.9455" y="340.4685">temporariamente</text></g><!--entity us--><g class="entity" data-qualified-name="us" data-source-line="1" id="ent0002"><ellipse cx="32.6021" cy="194" fill="#F1F1F1" rx="8" ry="8" style="stroke:#181818;stroke-width:0.5;"/><path d="M32.6021,202 L32.6021,229 M19.6021,210 L45.6021,210 M32.6021,229 L19.6021,244 M32.6021,229 L45.6021,244" fill="none" style="stroke:#181818;stroke-width:0.5;"/><text fill="#000000" font-family="sans-serif" font-size="14" lengthAdjust="spacing" textLength="53.2041" x="6" y="258.4951">Usu&#225;rio</text></g><!--entity ges--><g class="entity" data-qualified-name="ges" data-source-line="2" id="ent0003"><ellipse cx="175.2732" cy="103" fill="#F1F1F1" rx="8" ry="8" style="stroke:#181818;stroke-width:0.5;"/><path d="M175.2732,111 L175.2732,138 M162.2732,119 L188.2732,119 M175.2732,138 L162.2732,153 M175.2732,138 L188.2732,153" fill="none" style="stroke:#181818;stroke-width:0.5;"/><text fill="#000000" font-family="sans-serif" font-size="14" lengthAdjust="spacing" textLength="46.5664" x="151.99" y="167.4951">Gestor</text></g><!--entity usc--><g class="entity" data-qualified-name="usc" data-source-line="3" id="ent0004"><ellipse cx="175.2718" cy="293" fill="#F1F1F1" rx="8" ry="8" style="stroke:#181818;stroke-width:0.5;"/><path d="M175.2718,301 L175.2718,328 M162.2718,309 L188.2718,309 M175.2718,328 L162.2718,343 M175.2718,328 L188.2718,343" fill="none" style="stroke:#181818;stroke-width:0.5;"/><text fill="#000000" font-family="sans-serif" font-size="14" lengthAdjust="spacing" textLength="112.1436" x="119.2" y="357.4951">Usu&#225;rio Comum</text></g><!--entity ger--><g class="entity" data-qualified-name="ger" data-source-line="4" id="ent0005"><ellipse cx="540.4333" cy="14" fill="#F1F1F1" rx="8" ry="8" style="stroke:#181818;stroke-width:0.5;"/><path d="M540.4333,22 L540.4333,49 M527.4333,30 L553.4333,30 M540.4333,49 L527.4333,64 M540.4333,49 L553.4333,64" fill="none" style="stroke:#181818;stroke-width:0.5;"/><text fill="#000000" font-family="sans-serif" font-size="14" lengthAdjust="spacing" textLength="56.8066" x="512.03" y="78.4951">Gerente</text></g><!--entity adm--><g class="entity" data-qualified-name="adm" data-source-line="5" id="ent0006"><ellipse cx="340.89" cy="103" fill="#F1F1F1" rx="8" ry="8" style="stroke:#181818;stroke-width:0.5;"/><path d="M340.89,111 L340.89,138 M327.89,119 L353.89,119 M340.89,138 L327.89,153 M340.89,138 L353.89,153" fill="none" style="stroke:#181818;stroke-width:0.5;"/><text fill="#000000" font-family="sans-serif" font-size="14" lengthAdjust="spacing" textLength="99.0801" x="291.35" y="167.4951">Administrador</text></g><!--entity ass--><g class="entity" data-qualified-name="ass" data-source-line="6" id="ent0007"><ellipse cx="340.8843" cy="412" fill="#F1F1F1" rx="8" ry="8" style="stroke:#181818;stroke-width:0.5;"/><path d="M340.8843,420 L340.8843,447 M327.8843,428 L353.8843,428 M340.8843,447 L327.8843,462 M340.8843,447 L353.8843,462" fill="none" style="stroke:#181818;stroke-width:0.5;"/><text fill="#000000" font-family="sans-serif" font-size="14" lengthAdjust="spacing" textLength="70.3486" x="305.71" y="476.4951">Associado</text></g><!--entity tec--><g class="entity" data-qualified-name="tec" data-source-line="7" id="ent0008"><ellipse cx="340.8889" cy="284.85" fill="#F1F1F1" rx="8" ry="8" style="stroke:#181818;stroke-width:0.5;"/><path d="M340.8889,292.85 L340.8889,319.85 M327.8889,300.85 L353.8889,300.85 M340.8889,319.85 L327.8889,334.85 M340.8889,319.85 L353.8889,334.85" fill="none" style="stroke:#181818;stroke-width:0.5;"/><text fill="#000000" font-family="sans-serif" font-size="14" lengthAdjust="spacing" textLength="75.8379" x="302.97" y="349.3451">T&#233;cnico de</text><text fill="#000000" font-family="sans-serif" font-size="14" lengthAdjust="spacing" textLength="53.4775" x="302.97" y="365.642">suporte</text></g><!--entity cl--><g class="entity" data-qualified-name="cl" data-source-line="8" id="ent0009"><ellipse cx="540.4318" cy="410" fill="#F1F1F1" rx="8" ry="8" style="stroke:#181818;stroke-width:0.5;"/><path d="M540.4318,418 L540.4318,445 M527.4318,426 L553.4318,426 M540.4318,445 L527.4318,460 M540.4318,445 L553.4318,460" fill="none" style="stroke:#181818;stroke-width:0.5;"/><text fill="#000000" font-family="sans-serif" font-size="14" lengthAdjust="spacing" textLength="49.1436" x="515.86" y="474.4951">Cliente</text></g><!--entity co--><g class="entity" data-qualified-name="co" data-source-line="9" id="ent0010"><ellipse cx="540.4351" cy="521" fill="#F1F1F1" rx="8" ry="8" style="stroke:#181818;stroke-width:0.5;"/><path d="M540.4351,529 L540.4351,556 M527.4351,537 L553.4351,537 M540.4351,556 L527.4351,571 M540.4351,556 L553.4351,571" fill="none" style="stroke:#181818;stroke-width:0.5;"/><text fill="#000000" font-family="sans-serif" font-size="14" lengthAdjust="spacing" textLength="64.4902" x="508.19" y="585.4951">Contador</text></g><!--reverse link us to ges--><g class="link" data-entity-1="ent0002" data-entity-2="ent0003" data-link-type="extension" data-source-line="11" id="lnk11"><path d="M74.5141,197.1843 C101.0141,180.0443 126.71,163.42 151.88,147.14" fill="none" id="us-backto-ges" style="stroke:#181818;stroke-width:1;"/><polygon fill="none" points="59.4,206.96,77.7727,202.2223,71.2555,192.1463,59.4,206.96" style="stroke:#181818;stroke-width:1;"/></g><!--reverse link ges to adm--><g class="link" data-entity-1="ent0003" data-entity-2="ent0006" data-link-type="extension" data-source-line="12" id="lnk12"><path d="M217.03,132.65 C240.73,132.65 260.61,132.65 291.12,132.65" fill="none" id="ges-backto-adm" style="stroke:#181818;stroke-width:1;"/><polygon fill="none" points="199.03,132.65,217.03,138.65,217.03,126.65,199.03,132.65" style="stroke:#181818;stroke-width:1;"/></g><!--reverse link ges to ger--><g class="link" data-entity-1="ent0003" data-entity-2="ent0005" data-link-type="extension" data-source-line="13" id="lnk13"><path d="M214.3387,110.0104 C236.9087,96.9804 257.52,86.84 291.35,76.65 C368.94,53.28 465.14,46.45 511.66,44.46" fill="none" id="ges-backto-ger" style="stroke:#181818;stroke-width:1;"/><polygon fill="none" points="198.75,119.01,217.3386,115.2066,211.3388,104.8142,198.75,119.01" style="stroke:#181818;stroke-width:1;"/></g><!--reverse link us to usc--><g class="link" data-entity-1="ent0002" data-entity-2="ent0004" data-link-type="extension" data-source-line="14" id="lnk14"><path d="M74.1231,252.1652 C90.9431,263.9952 98.8,269.54 119.5,284.1" fill="none" id="us-backto-usc" style="stroke:#181818;stroke-width:1;"/><polygon fill="none" points="59.4,241.81,70.6714,257.0729,77.5748,247.2575,59.4,241.81" style="stroke:#181818;stroke-width:1;"/></g><!--reverse link usc to ass--><g class="link" data-entity-1="ent0004" data-entity-2="ent0007" data-link-type="extension" data-source-line="15" id="lnk15"><path d="M243.955,371.8802 C268.955,390.0702 283.5,400.64 305.56,416.68" fill="none" id="usc-backto-ass" style="stroke:#181818;stroke-width:1;"/><polygon fill="none" points="229.4,361.29,240.4249,376.7319,247.4851,367.0285,229.4,361.29" style="stroke:#181818;stroke-width:1;"/></g><!--reverse link ass to co--><g class="link" data-entity-1="ent0007" data-entity-2="ent0010" data-link-type="extension" data-source-line="16" id="lnk16"><path d="M391.3621,474.7556 C406.4921,484.6556 409.56,486.2 426.43,495.65 C453.27,510.69 484.82,525.85 507.76,536.43" fill="none" id="ass-backto-co" style="stroke:#181818;stroke-width:1;"/><polygon fill="none" points="376.3,464.9,388.0769,479.7763,394.6473,469.7349,376.3,464.9" style="stroke:#181818;stroke-width:1;"/></g><!--reverse link ass to cl--><g class="link" data-entity-1="ent0007" data-entity-2="ent0009" data-link-type="extension" data-source-line="17" id="lnk17"><path d="M394.2991,441.1196 C434.1991,440.7196 480.94,440.24 515.65,439.89" fill="none" id="ass-backto-cl" style="stroke:#181818;stroke-width:1;"/><polygon fill="none" points="376.3,441.3,394.3592,447.1193,394.2389,435.1199,376.3,441.3" style="stroke:#181818;stroke-width:1;"/></g><!--reverse link usc to tec--><g class="link" data-entity-1="ent0004" data-entity-2="ent0008" data-link-type="extension" data-source-line="18" id="lnk18"><path d="M249.67,322.65 C273.03,322.65 281.61,322.65 302.58,322.65" fill="none" id="usc-backto-tec" style="stroke:#181818;stroke-width:1;"/><polygon fill="none" points="231.67,322.65,249.67,328.65,249.67,316.65,231.67,322.65" style="stroke:#181818;stroke-width:1;"/></g><!--reverse link mantUs to mantAss--><g class="link" data-entity-1="ent0020" data-entity-2="ent0021" data-link-type="extension" data-source-line="33" id="lnk24"><path d="M628.4193,153.4265 C653.7293,153.6465 664.5,153.75 690.38,153.98" fill="none" id="mantUs-backto-mantAss" style="stroke:#181818;stroke-width:1;"/><polygon fill="none" points="610.42,153.27,628.3672,159.4262,628.4715,147.4267,610.42,153.27" style="stroke:#181818;stroke-width:1;"/></g><!--link adm to mantUs--><g class="link" data-entity-1="ent0006" data-entity-2="ent0020" data-link-type="association" data-source-line="35" id="lnk25"><path d="M390.72,137.6 C416.43,140.2 448.26,143.42 475.87,146.22" fill="none" id="adm-mantUs" style="stroke:#181818;stroke-width:1;"/></g><!--link ger to mantAss--><g class="link" data-entity-1="ent0005" data-entity-2="ent0021" data-link-type="association" data-source-line="37" id="lnk26"><path d="M569,57.26 C610.52,77.76 688.94,116.47 733.38,138.41" fill="none" id="ger-mantAss" style="stroke:#181818;stroke-width:1;"/></g><!--link us to gerenPf--><g class="link" data-entity-1="ent0002" data-entity-2="ent0022" data-link-type="association" data-source-line="39" id="lnk27"><path d="M59.38,223.5 C134.48,223.05 354.94,221.75 469.1,221.07" fill="none" id="us-gerenPf" style="stroke:#181818;stroke-width:1;"/></g><!--link tec to visInfo--><g class="link" data-entity-1="ent0008" data-entity-2="ent0023" data-link-type="association" data-source-line="41" id="lnk28"><path d="M379.04,321.33 C399.27,320.62 425.24,319.7 450.37,318.81" fill="none" id="tec-visInfo" style="stroke:#181818;stroke-width:1;"/></g><?plantuml-src JP4zJWCn48LxdsAKXcmHAK7Gh6XG2aI1H46eqbXURx3mJpJsKl1p64I1E00ds8inOtit55OoRp-_cNbkTt4OFz645cI48OhsHiSKC9S7JVK4m3QumLLCCOVQ9rr15ErrvumtCQ7iwdtPEP9Z3CgGLgH8bW_ZZ_961UZqtiVX6B3w94t6MsjcOsMf3ZxDbYe8CKIuUb-jydXqIi6zveBdcIWUbawbg3sTKf3NwRyzGJo5iBfFa0AWEJmbw0ngbKpmGXobUfO73GiEQlpY9QX7oIWku4q0dC5wlQ7VvPsaHN3-tF06ZhHThDJvFqfEGSqOHLUvI-PouaGW73NsnZOrUktl-y9jBfXxD76GrhnAt7imlW_evFWz_b8w7FZS1tIvdKXCsj4pI3JIiP2jNqoyfTiYUwEsKb40-NlWkPPbawQ4jgm3DupJOy2axOf4dU0_1YpI6x5MTyWSXP-rshmH7ty0?></g></svg>