<?plantuml 1.2026.1beta5?><svg xmlns="http://www.w3.org/2000/svg" xmlns:xlink="http://www.w3.org/1999/xlink" contentStyleType="text/css" data-diagram-type="DESCRIPTION" height="436px" preserveAspectRatio="none" style="width:1064px;height:436px;background:#FFFFFF;" version="1.1" viewBox="0 0 1064 436" width="1064px" zoomAndPan="magnify"><defs/><g><!--cluster Importa??o de Dados e Valida??es--><g class="cluster" data-qualified-name="Importa..o de Dados e Valida..es" data-source-line="22" id="ent0019"><path d="M572.77,17.65 L846.2573,17.65 A3.75,3.75 0 0 1 848.7573,20.15 L855.7573,39.9469 L1055.11,39.9469 A2.5,2.5 0 0 1 1057.61,42.4469 L1057.61,294.15 A2.5,2.5 0 0 1 1055.11,296.65 L572.77,296.65 A2.5,2.5 0 0 1 570.27,294.15 L570.27,20.15 A2.5,2.5 0 0 1 572.77,17.65" fill="none" style="stroke:#000000;stroke-width:1.5;"/><line style="stroke:#000000;stroke-width:1.5;" x1="570.27" x2="855.7573" y1="39.9469" y2="39.9469"/><text fill="#000000" font-family="sans-serif" font-size="14" font-weight="bold" lengthAdjust="spacing" textLength="272.4873" x="574.27" y="32.6451">Importa&#231;&#227;o de Dados e Valida&#231;&#245;es</text></g><!--entity valCNPJ--><g class="entity" data-qualified-name="Importa..o de Dados e Valida..es.valCNPJ" data-source-line="24" id="ent0020"><ellipse cx="699.1131" cy="252.6486" fill="#F1F1F1" rx="112.8431" ry="24.9686" style="stroke:#181818;stroke-width:0.5;"/><text fill="#000000" font-family="sans-serif" font-size="14" lengthAdjust="spacing" textLength="104.3643" x="646.9309" y="246.1141">Consultar CNPJ</text><text fill="#000000" font-family="sans-serif" font-size="14" lengthAdjust="spacing" textLength="175.1367" x="611.5447" y="262.411">para Autopreenchimento</text></g><!--entity impDados--><g class="entity" data-qualified-name="Importa..o de Dados e Valida..es.impDados" data-source-line="27" id="ent0021"><ellipse cx="699.1143" cy="167.6498" fill="#F1F1F1" rx="85.6043" ry="23.9298" style="stroke:#181818;stroke-width:0.5;"/><text fill="#000000" font-family="sans-serif" font-size="14" lengthAdjust="spacing" textLength="60.7988" x="668.7149" y="160.9857">Importar</text><text fill="#000000" font-family="sans-serif" font-size="14" lengthAdjust="spacing" textLength="128.6387" x="634.795" y="177.2826">Dados Financeiros</text></g><!--entity valDados--><g class="entity" data-qualified-name="Importa..o de Dados e Valida..es.valDados" data-source-line="30" id="ent0022"><ellipse cx="956.7796" cy="76.6535" fill="#F1F1F1" rx="84.8296" ry="23.7335" style="stroke:#181818;stroke-width:0.5;"/><text fill="#000000" font-family="sans-serif" font-size="14" lengthAdjust="spacing" textLength="49.1572" x="932.201" y="69.6742">Validar</text><text fill="#000000" font-family="sans-serif" font-size="14" lengthAdjust="spacing" textLength="128.6387" x="892.4602" y="85.9711">Dados Financeiros</text></g><g class="entity" data-qualified-name="Importa..o de Dados e Valida..es.n1" data-source-line="39" id="ent0027"><path d="M611.61,52.95 L611.61,108.3484 A0,0 0 0 0 611.61,108.3484 L786.6105,108.3484 A0,0 0 0 0 786.6105,108.3484 L786.6105,83.29 L871.7,77.97 L786.6105,75.29 L786.6105,62.95 L776.6105,52.95 L611.61,52.95 A0,0 0 0 0 611.61,52.95" fill="#FEFFDD" style="stroke:#181818;stroke-width:0.5;"/><path d="M776.6105,52.95 L776.6105,62.95 L786.6105,62.95 L776.6105,52.95" fill="#FEFFDD" style="stroke:#181818;stroke-width:0.5;"/><text fill="#000000" font-family="sans-serif" font-size="13" lengthAdjust="spacing" textLength="141.21" x="617.61" y="70.0169">Valida&#231;&#227;o autom&#225;tica</text><text fill="#000000" font-family="sans-serif" font-size="13" lengthAdjust="spacing" textLength="123.0366" x="617.61" y="85.1497">pelo sistema antes</text><text fill="#000000" font-family="sans-serif" font-size="13" lengthAdjust="spacing" textLength="154.0005" x="617.61" y="100.2825">de processar simula&#231;&#227;o</text></g><g class="entity" data-qualified-name="Importa..o de Dados e Valida..es.n2" data-source-line="42" id="ent0029"><path d="M875.64,224.95 L875.64,248.65 L812.25,252.65 L875.64,256.65 L875.64,280.3484 A0,0 0 0 0 875.64,280.3484 L1037.9134,280.3484 A0,0 0 0 0 1037.9134,280.3484 L1037.9134,234.95 L1027.9134,224.95 L875.64,224.95 A0,0 0 0 0 875.64,224.95" fill="#FEFFDD" style="stroke:#181818;stroke-width:0.5;"/><path d="M1027.9134,224.95 L1027.9134,234.95 L1037.9134,234.95 L1027.9134,224.95" fill="#FEFFDD" style="stroke:#181818;stroke-width:0.5;"/><text fill="#000000" font-family="sans-serif" font-size="13" lengthAdjust="spacing" textLength="81.6563" x="881.64" y="242.0169">Consulta API</text><text fill="#000000" font-family="sans-serif" font-size="13" lengthAdjust="spacing" textLength="101.6323" x="881.64" y="257.1497">Receita Federal</text><text fill="#000000" font-family="sans-serif" font-size="13" lengthAdjust="spacing" textLength="141.2734" x="881.64" y="272.2825">(ReceitaWS/BrasilAPI)</text></g><g class="entity" data-qualified-name="Importa..o de Dados e Valida..es.n3" data-source-line="45" id="ent0031"><path d="M903,134.95 L903,159.7 L784.89,166 L903,167.7 L903,190.3484 A0,0 0 0 0 903,190.3484 L1010.5693,190.3484 A0,0 0 0 0 1010.5693,190.3484 L1010.5693,144.95 L1000.5693,134.95 L903,134.95 A0,0 0 0 0 903,134.95" fill="#FEFFDD" style="stroke:#181818;stroke-width:0.5;"/><path d="M1000.5693,134.95 L1000.5693,144.95 L1010.5693,144.95 L1000.5693,134.95" fill="#FEFFDD" style="stroke:#181818;stroke-width:0.5;"/><text fill="#000000" font-family="sans-serif" font-size="13" lengthAdjust="spacing" textLength="71.4937" x="909" y="152.0169">Importa de</text><text fill="#000000" font-family="sans-serif" font-size="13" lengthAdjust="spacing" textLength="78.8442" x="909" y="167.1497">Excel (.xlsx)</text><text fill="#000000" font-family="sans-serif" font-size="13" lengthAdjust="spacing" textLength="86.5693" x="909" y="182.2825">ou CSV (.csv)</text></g><!--entity us--><g class="entity" data-qualified-name="us" data-source-line="1" id="ent0002"><ellipse cx="32.6021" cy="191" fill="#F1F1F1" rx="8" ry="8" style="stroke:#181818;stroke-width:0.5;"/><path d="M32.6021,199 L32.6021,226 M19.6021,207 L45.6021,207 M32.6021,226 L19.6021,241 M32.6021,226 L45.6021,241" fill="none" style="stroke:#181818;stroke-width:0.5;"/><text fill="#000000" font-family="sans-serif" font-size="14" lengthAdjust="spacing" textLength="53.2041" x="6" y="255.4951">Usu&#225;rio</text></g><!--entity ges--><g class="entity" data-qualified-name="ges" data-source-line="2" id="ent0003"><ellipse cx="329.2632" cy="125" fill="#F1F1F1" rx="8" ry="8" style="stroke:#181818;stroke-width:0.5;"/><path d="M329.2632,133 L329.2632,160 M316.2632,141 L342.2632,141 M329.2632,160 L316.2632,175 M329.2632,160 L342.2632,175" fill="none" style="stroke:#181818;stroke-width:0.5;"/><text fill="#000000" font-family="sans-serif" font-size="14" lengthAdjust="spacing" textLength="46.5664" x="305.98" y="189.4951">Gestor</text></g><!--entity usc--><g class="entity" data-qualified-name="usc" data-source-line="3" id="ent0004"><ellipse cx="175.2718" cy="236" fill="#F1F1F1" rx="8" ry="8" style="stroke:#181818;stroke-width:0.5;"/><path d="M175.2718,244 L175.2718,271 M162.2718,252 L188.2718,252 M175.2718,271 L162.2718,286 M175.2718,271 L188.2718,286" fill="none" style="stroke:#181818;stroke-width:0.5;"/><text fill="#000000" font-family="sans-serif" font-size="14" lengthAdjust="spacing" textLength="112.1436" x="119.2" y="300.4951">Usu&#225;rio Comum</text></g><!--entity ger--><g class="entity" data-qualified-name="ger" data-source-line="4" id="ent0005"><ellipse cx="476.7233" cy="14" fill="#F1F1F1" rx="8" ry="8" style="stroke:#181818;stroke-width:0.5;"/><path d="M476.7233,22 L476.7233,49 M463.7233,30 L489.7233,30 M476.7233,49 L463.7233,64 M476.7233,49 L489.7233,64" fill="none" style="stroke:#181818;stroke-width:0.5;"/><text fill="#000000" font-family="sans-serif" font-size="14" lengthAdjust="spacing" textLength="56.8066" x="448.32" y="78.4951">Gerente</text></g><!--entity adm--><g class="entity" data-qualified-name="adm" data-source-line="5" id="ent0006"><ellipse cx="476.73" cy="125" fill="#F1F1F1" rx="8" ry="8" style="stroke:#181818;stroke-width:0.5;"/><path d="M476.73,133 L476.73,160 M463.73,141 L489.73,141 M476.73,160 L463.73,175 M476.73,160 L489.73,175" fill="none" style="stroke:#181818;stroke-width:0.5;"/><text fill="#000000" font-family="sans-serif" font-size="14" lengthAdjust="spacing" textLength="99.0801" x="427.19" y="189.4951">Administrador</text></g><!--entity ass--><g class="entity" data-qualified-name="ass" data-source-line="6" id="ent0007"><ellipse cx="329.2643" cy="236" fill="#F1F1F1" rx="8" ry="8" style="stroke:#181818;stroke-width:0.5;"/><path d="M329.2643,244 L329.2643,271 M316.2643,252 L342.2643,252 M329.2643,271 L316.2643,286 M329.2643,271 L342.2643,286" fill="none" style="stroke:#181818;stroke-width:0.5;"/><text fill="#000000" font-family="sans-serif" font-size="14" lengthAdjust="spacing" textLength="70.3486" x="294.09" y="300.4951">Associado</text></g><!--entity tec--><g class="entity" data-qualified-name="tec" data-source-line="7" id="ent0008"><ellipse cx="329.2689" cy="346.86" fill="#F1F1F1" rx="8" ry="8" style="stroke:#181818;stroke-width:0.5;"/><path d="M329.2689,354.86 L329.2689,381.86 M316.2689,362.86 L342.2689,362.86 M329.2689,381.86 L316.2689,396.86 M329.2689,381.86 L342.2689,396.86" fill="none" style="stroke:#181818;stroke-width:0.5;"/><text fill="#000000" font-family="sans-serif" font-size="14" lengthAdjust="spacing" textLength="75.8379" x="291.35" y="411.3551">T&#233;cnico de</text><text fill="#000000" font-family="sans-serif" font-size="14" lengthAdjust="spacing" textLength="53.4775" x="291.35" y="427.652">suporte</text></g><!--entity cl--><g class="entity" data-qualified-name="cl" data-source-line="8" id="ent0009"><ellipse cx="476.7218" cy="236" fill="#F1F1F1" rx="8" ry="8" style="stroke:#181818;stroke-width:0.5;"/><path d="M476.7218,244 L476.7218,271 M463.7218,252 L489.7218,252 M476.7218,271 L463.7218,286 M476.7218,271 L489.7218,286" fill="none" style="stroke:#181818;stroke-width:0.5;"/><text fill="#000000" font-family="sans-serif" font-size="14" lengthAdjust="spacing" textLength="49.1436" x="452.15" y="300.4951">Cliente</text></g><!--entity co--><g class="entity" data-qualified-name="co" data-source-line="9" id="ent0010"><ellipse cx="476.7251" cy="347" fill="#F1F1F1" rx="8" ry="8" style="stroke:#181818;stroke-width:0.5;"/><path d="M476.7251,355 L476.7251,382 M463.7251,363 L489.7251,363 M476.7251,382 L463.7251,397 M476.7251,382 L489.7251,397" fill="none" style="stroke:#181818;stroke-width:0.5;"/><text fill="#000000" font-family="sans-serif" font-size="14" lengthAdjust="spacing" textLength="64.4902" x="444.48" y="411.4951">Contador</text></g><!--reverse link us to ges--><g class="link" data-entity-1="ent0002" data-entity-2="ent0003" data-link-type="extension" data-source-line="11" id="lnk11"><path d="M77.0549,210.9162 C134.0749,198.1462 252.11,171.71 305.81,159.68" fill="none" id="us-backto-ges" style="stroke:#181818;stroke-width:1;"/><polygon fill="none" points="59.49,214.85,78.3661,216.7712,75.7436,205.0613,59.49,214.85" style="stroke:#181818;stroke-width:1;"/></g><!--reverse link ges to adm--><g class="link" data-entity-1="ent0003" data-entity-2="ent0006" data-link-type="extension" data-source-line="12" id="lnk12"><path d="M370.99,154.65 C390.73,154.65 401.99,154.65 426.99,154.65" fill="none" id="ges-backto-adm" style="stroke:#181818;stroke-width:1;"/><polygon fill="none" points="352.99,154.65,370.99,160.65,370.99,148.65,352.99,154.65" style="stroke:#181818;stroke-width:1;"/></g><!--reverse link ges to ger--><g class="link" data-entity-1="ent0003" data-entity-2="ent0005" data-link-type="extension" data-source-line="13" id="lnk13"><path d="M367.3005,126.3916 C392.9505,106.8216 420.37,85.89 447.94,64.86" fill="none" id="ges-backto-ger" style="stroke:#181818;stroke-width:1;"/><polygon fill="none" points="352.99,137.31,370.9399,131.1618,363.661,121.6215,352.99,137.31" style="stroke:#181818;stroke-width:1;"/></g><!--reverse link us to usc--><g class="link" data-entity-1="ent0002" data-entity-2="ent0004" data-link-type="extension" data-source-line="14" id="lnk14"><path d="M76.544,234.3948 C93.204,239.7248 98.38,241.37 118.91,247.94" fill="none" id="us-backto-usc" style="stroke:#181818;stroke-width:1;"/><polygon fill="none" points="59.4,228.91,74.7157,240.1095,78.3723,228.6802,59.4,228.91" style="stroke:#181818;stroke-width:1;"/></g><!--reverse link usc to ass--><g class="link" data-entity-1="ent0004" data-entity-2="ent0007" data-link-type="extension" data-source-line="15" id="lnk15"><path d="M249.58,265.65 C270.46,265.65 275.59,265.65 294,265.65" fill="none" id="usc-backto-ass" style="stroke:#181818;stroke-width:1;"/><polygon fill="none" points="231.58,265.65,249.58,271.65,249.58,259.65,231.58,265.65" style="stroke:#181818;stroke-width:1;"/></g><!--reverse link ass to co--><g class="link" data-entity-1="ent0007" data-entity-2="ent0010" data-link-type="extension" data-source-line="16" id="lnk16"><path d="M379.0516,302.8769 C403.0816,321.2069 420.58,334.57 443.99,352.43" fill="none" id="ass-backto-co" style="stroke:#181818;stroke-width:1;"/><polygon fill="none" points="364.74,291.96,375.4127,307.6474,382.6906,298.1063,364.74,291.96" style="stroke:#181818;stroke-width:1;"/></g><!--reverse link ass to cl--><g class="link" data-entity-1="ent0007" data-entity-2="ent0009" data-link-type="extension" data-source-line="17" id="lnk17"><path d="M382.74,265.65 C409.62,265.65 428.26,265.65 451.95,265.65" fill="none" id="ass-backto-cl" style="stroke:#181818;stroke-width:1;"/><polygon fill="none" points="364.74,265.65,382.74,271.65,382.74,259.65,364.74,265.65" style="stroke:#181818;stroke-width:1;"/></g><!--reverse link usc to tec--><g class="link" data-entity-1="ent0004" data-entity-2="ent0008" data-link-type="extension" data-source-line="18" id="lnk18"><path d="M239.7961,315.3823 C261.1261,332.0723 271.47,340.19 291.21,355.64" fill="none" id="usc-backto-tec" style="stroke:#181818;stroke-width:1;"/><polygon fill="none" points="225.62,304.29,236.0986,320.1077,243.4935,310.6569,225.62,304.29" style="stroke:#181818;stroke-width:1;"/></g><!--link co to valCNPJ--><g class="link" data-entity-1="ent0010" data-entity-2="ent0020" data-link-type="association" data-source-line="33" id="lnk23"><path d="M509.3,358.89 C547.98,337.12 613.63,300.18 656.43,276.11" fill="none" id="co-valCNPJ" style="stroke:#181818;stroke-width:1;"/></g><!--link ger to valCNPJ--><g class="link" data-entity-1="ent0005" data-entity-2="ent0020" data-link-type="association" data-source-line="34" id="lnk24"><path d="M505.56,70.77 C513.05,79.17 520.64,88.82 526.27,98.65 C551.81,143.3 525.84,172.33 562.27,208.65 C575.26,221.61 592.09,230.75 609.45,237.2" fill="none" id="ger-valCNPJ" style="stroke:#181818;stroke-width:1;"/></g><!--link co to impDados--><g class="link" data-entity-1="ent0010" data-entity-2="ent0021" data-link-type="association" data-source-line="36" id="lnk25"><path d="M509.36,345.2 C515.57,337.89 521.6,329.84 526.27,321.65 C551.96,276.6 525.46,247.2 562.27,210.65 C578.33,194.7 600.26,184.66 621.82,178.34" fill="none" id="co-impDados" style="stroke:#181818;stroke-width:1;"/></g><!--link ger to impDados--><g class="link" data-entity-1="ent0005" data-entity-2="ent0021" data-link-type="association" data-source-line="37" id="lnk26"><path d="M505.33,77.08 C520.6,93.72 540.81,112.93 562.27,125.65 C582.86,137.86 607.36,146.85 629.83,153.3" fill="none" id="ger-impDados" style="stroke:#181818;stroke-width:1;"/></g><?plantuml-src TPBDZjCm58NtUOghRcWNBLC64AhOb41H4Q1g_jXaOpcNZeL_8bzdL0bucD4i40_04-J5vjfnqeB4mbBlwSddusElhgdjxhroAn04BHMhzqZ1-JJkaUV10AKphSas6NqURS1izCLgNHjb5GKlwlozg0tBH4ugrdg967dL_PPMIGSrLfRQnldC2SZWKgiHB3NFpeOHALrHj0IlVypdAHwlVeXxZKFCCxXYM5xPnTlpwWTc7N_heoccA3H-3H0SUBM_3L0hZp8ePukY4VARs2DCjYO65zslxY6U1DvoI0A46w5L7UK_I1FuNW0yWUjo-GBcSB6PRp_jvcTdIrQdV31gTH0Uoi-x3vLjX1UmReDhFAALjyfm3suMZtqdTFJmLmFkvIdkMSJbFBwoVPADii9ALDvHOYZJf3zE8CzxIBd-o91N4TA7_o-3S_ICHF2eXUHIH0eQmNodNE0qnvsnmbVnjtHq3O5ERKUDHUi2zppsoJKBRiTqzq59mNsXTa3yuj084FnagB9y3urt4ecuLbAcrVsNavZUnjhj4XQBbEVVZORxWFLkMzaBv7FpiC4QlT2LdMRbo-NJDrwGqcoRzTpK_t32Y6TbnEPxIO_ztK6YXkdYeEamgwnheRoyuLdINKQTHzJOGcAT5pyV0G00?></g></svg>